<?xml version="1.0" encoding="UTF-8"?>
<svg xmlns="http://www.w3.org/2000/svg" version="1.1" xmlns:xlink="http://www.w3.org/1999/xlink" viewBox="0 0 1024 1024">
  <!-- Generator: Adobe Illustrator 29.3.1, SVG Export Plug-In . SVG Version: 2.1.0 Build 151)  -->
  <defs>
    <style>
      .st0 {
        fill: #e8e8e5;
      }

      .st1 {
        fill: #aeafa6;
      }

      .st2 {
        fill: #f4f3ee;
      }

      .st3 {
        fill: #e4e5e2;
      }

      .st4 {
        fill: #98968c;
      }

      .st5 {
        fill: #f7f7f3;
      }

      .st6 {
        fill: #c0c0b9;
      }

      .st7 {
        fill: #96978b;
      }

      .st8 {
        fill: #52524c;
      }

      .st9 {
        fill: #f0f0ef;
      }

      .st10 {
        fill: #f2f1f0;
      }

      .st11 {
        fill: #babbb3;
      }

      .st12 {
        stroke: #000;
        stroke-miterlimit: 10;
      }

      .st13 {
        fill: #d7d7d3;
      }

      .st14 {
        fill: #0b0a09;
      }

      .st15 {
        fill: #868478;
      }

      .st16 {
        fill: #c3c4bd;
      }

      .st17 {
        fill: #9e9f95;
      }

      .st18 {
        fill: #f3f3f2;
      }

      .st19 {
        fill: #d6d6d2;
      }

      .st20 {
        fill: #edede4;
      }

      .st21 {
        fill: #a6a79d;
      }

      .st22 {
        fill: #f4f4f3;
      }

      .st23 {
        fill: #98998e;
      }

      .st24 {
        fill: #bebeb7;
      }

      .st25 {
        fill: #e2e2df;
      }

      .st26 {
        fill: #c6c7c1;
      }

      .st27 {
        fill: #e1e0d1;
      }

      .st28 {
        fill: #555550;
      }

      .st29 {
        fill: #e3e4e1;
      }

      .st30 {
        fill: #f5f5f4;
      }

      .st31 {
        fill: #e5e6e3;
      }

      .st32 {
        fill: #f8f7f4;
      }

      .st33 {
        fill: #bfbfb8;
      }

      .st34 {
        fill: #c2c3bc;
      }

      .st35 {
        fill: #cacac4;
      }

      .st36 {
        fill: #e0e0dd;
      }
    </style>
  </defs>
  <g id="Layer_2">
    <rect class="st12" width="1024" height="1024"/>
  </g>
  <g id="Layer_1">
    <path class="st35" d="M497.5,1025c-2.5-3-4.4-6.2-6.6-9.1-5.4-7.4-10.9-14.6-16-22.4,4.5-2.8,8.8-5.1,13.1-7.5,5.8,9.5,11.9,18.8,17.3,28.5,1.5,2.7,1.1,6.4,1.7,10-3,.4-6,.4-9.5.4h0Z"/>
    <path class="st35" d="M545.8,998.3c-6.2,8.8-12.4,17.5-18.2,26.5-3,.2-6.3.2-10.2.2-1.4-6.3,1.2-11.5,4.4-16.6,3.2-5,6.3-10,10.1-15.2,2.2.8,3.8,1.7,5.4,2.7,0-.2.2-.4.3-.7,2.7,1,5.5,2.1,8.2,3.1M531.7,999.8c-.1,0-.3.2-.4.4.1,0,.3,0,.4-.4Z"/>
    <path class="st30" d="M686.6,847.5c7.1-12.7,10.5-26.2,12.9-41.1,1.8,2.2,3.4,3.8,4.6,5.6,11.6,17.5,14.8,37.1,14.3,57.6-.9,35.3-15.6,63.7-42.9,85.8-9.6,7.7-19.2,15.4-28.9,23-1.2.9-2.7,1.3-4.8,2.2,14.4-24.6,24.5-49.7,29-76.9,1.9-11.5,2.3-23.2,3.7-34.7.4-2.9,1.6-5.9,3.1-8.5,2.6-4.4,5.8-8.5,9-13h0Z"/>
    <path class="st30" d="M351.1,896.8c4.2,30.3,15.4,57.6,30,83.8-18.7-13-36.7-26.4-51.9-43.2-13.4-14.9-19.6-33-22.7-52.3-3.2-20.1-2.3-39.9,5.6-58.9,2.7-6.5,6.7-12.4,10.5-19.3,3.4,11.4,5.5,21.7,9.6,31.2,3.7,8.6,9.6,16.2,14.5,24.3.9,1.5,2,3.1,2.1,4.7.9,9.8,1.5,19.6,2.3,29.8h0Z"/>
    <path class="st22" d="M688.6,254.5c-7.8,21.7-21.6,36.6-44.7,43-.2-3.2-.4-5.6-.5-8,0-18-.2-36,0-54,0-2.2.6-4.8,1.9-6.4,8.9-10.7,14.9-22.8,18.6-36.1,3.4-12.2,10.1-22.3,19.7-30.6,1.1-.9,2.3-1.8,4.5-3.4,1.2,7.9,2.6,15,3.4,22.2,2.5,22.7,3.7,45.5-1.4,68.1-.4,1.6-.9,3.2-1.5,5.2h0Z"/>
    <path class="st30" d="M374.4,295.8c-23.3-8.1-36-25.2-41.2-47.9-5.9-25.4-3.5-51,.3-76.4.6-3.7,1.4-7.5,2.2-12,7.3,4.8,12.9,10.4,16.6,17.4,3.8,7.2,6.8,14.8,9.4,22.5,3.7,10.9,8.9,20.7,16.4,29.4,1.1,1.3,2.1,3.2,2.1,4.8,0,20.5,0,41-.1,61.4,0,.5-.2,1-.3,1.6-1.7-.3-3.3-.5-5.3-.9h-.1Z"/>
    <path class="st22" d="M659.3,911.3c-6.8,28.6-17.9,54.9-35.3,78-8.2,10.9-18.8,20.1-28.1,29.9-1.4-1.1-1.9-1.3-1.9-1.5.7-16.3.9-32.6,2.5-48.8,1.5-15.4,11-27.2,20.4-38.8,15.1-18.8,30.3-37.5,45.5-56.3.2-.2.6-.2,1.5-.4,0,12.8-1.7,25.2-4.6,37.9h0Z"/>
    <path class="st22" d="M359.4,875.8c.2-4,1.5-1.9,2.4-.8,3.9,4.5,7.9,9,11.7,13.7,14.1,17.7,28.3,35.3,42,53.3,8.2,10.8,12.4,23.6,13.1,37.2.6,12.9.1,25.9.1,38.6-28.9-9-68.4-88.9-69.3-141.9h0Z"/>
    <path class="st30" d="M872.8,613.2c-15.1-14-30.1-27.7-45-41.4-4.5-4.1-9-8.2-13.7-12.6,9.9-10.4,14.9-22,13.9-36.8,23.9,17.9,47.8,34.4,60.6,61.9,11.6,24.9,16.7,50.8,13.2,78.5-7.3-17.9-16.3-34.6-29-49.6h0Z"/>
    <path class="st22" d="M145.6,566.6c11.2-14.6,32.8-33.7,49.5-43.8-.6,13.9,4.2,25.6,13.8,36.6-7.9,6.9-15.5,13.8-23.4,20.2-23.4,18.7-43.9,39.8-56.4,67.6-2.3,5.1-4.2,10.3-6.5,16-5.7-17.1-.1-65.3,23.1-96.6h0Z"/>
    <path class="st22" d="M815,791.9c-9.2,21.9-24.7,37.8-43.1,50.9,2.4-12.4,5.8-24.8,6.9-37.5,1.3-14.9.5-29.9.7-44.9,0-1.6,0-3.4.6-4.8,8.4-15.8,11.5-32.9,13.1-50.4,0-1.5.3-2.9.6-5.9,11,13.9,19.1,28,23.2,44,4.1,16.1,3.7,32.3-2.1,48.6h0Z"/>
    <path class="st22" d="M204,760.2c1.6-23.4,11.8-42.6,25.8-61,1.5,10.3,2.2,19.7,4.3,28.8,2,8.5,5.6,16.6,8.4,24.9.7,2,1.6,4.1,1.4,6.1-2.6,27.8-.5,55.2,7.9,81.9v1c-24.9-15.5-50.7-46.6-47.8-81.7h0Z"/>
    <path class="st30" d="M287,573.1c2.5-9.6,4.9-18.7,7.3-27.8.6-.2,1.2-.4,1.8-.6,6.2,6.1,12.4,12.4,18.8,18.3,5.5,5.1,7.4,10.8,7.2,18.4-.5,26.2-.1,52.3-.1,78.5v5.1c-18.9-11.5-43-45.8-35-91.9Z"/>
    <path class="st18" d="M506.9,557.5v116.8h-28.3c0-.9-.3-2.2-.3-3.4,0-28.8-.2-57.6,0-86.5,0-2.1.7-4.8,2.1-6.2,7.8-7.5,15.9-14.7,24-21.9,1.1-1,2.8-3.1,2.7,1.2h-.2Z"/>
    <path class="st22" d="M720.4,551.4c2.5-2.1,4.8-4.1,7.1-6,22.1,34.3,9.4,95.2-25.3,120.5,0-.8-.3-1.3-.3-1.9,0-29.7,0-59.3.3-89,0-2.5,1.2-5.6,2.8-7.5,4.8-5.6,10-10.7,15.4-16.2h0Z"/>
    <path class="st30" d="M517,665.9v-111.4c1.9,1.5,3.2,2.4,4.4,3.6,7.3,6.8,14.7,13.6,21.9,20.5,1,1,2,2.7,2,4.1.2,29.8,0,91-.2,92.1h-28.2v-8.9h.1Z"/>
    <path class="st18" d="M228.3,218.6c-7.9-29.2-4-57.1,9.4-83.2,6.6-12.9,16.1-24.4,24.3-36.5,1.1-1.6,2.6-2.8,3.5-3.8-4.1,24.4-9.1,48.9-12.2,73.6-3.1,24.8-4.4,49.9-6.5,75.2-9.2-6-14.4-15.1-18.6-25.4h0Z"/>
    <path class="st5" d="M156.7,474.7c9.7-5,18.7-11.2,28.7-14.3,32.7-10.3,63.6-24.4,94.1-39.7,18.8-9.4,36.5-20.5,53.4-33,1.7-1.3,3.6-2.3,5.5-3.4.5-.3,1.2-.4,3.1-.9-1.4,2.8-2.1,4.9-3.3,6.6-10.1,14.3-22.9,25.9-37.9,34.9-29.2,17.6-60.7,30.1-93.1,40.3-16.2,5.1-32.4,10.3-45.6,21.7-3.7,3.3-7.5,6.8-10.3,10.8-3.8,5.6-9.2,8.4-15.8,11.2,3.3-14.2,10.3-25.2,21.2-34.3h0Z"/>
    <path class="st22" d="M622.4,590.4c23.7-5.2,44.1-15,57.7-35.8,2.4-3.7,4.9-7.4,7.3-11.1h1.5c1,4.9,2.7,9.8,3,14.8.5,10.1.2,20.3,0,30.4,0,1.3-.7,3.1-1.7,3.7-16.5,9-29.3,22.3-41.5,36.2-.2.2-.6.3-1.1.5-14.9-8.7-27.4-19.9-35.3-36.4,3.6-.8,6.6-1.5,10-2.4h.1Z"/>
    <path class="st32" d="M823.1,455c9.6,3.4,19.1,6.2,28.1,10,19.5,8.3,31.2,23.5,37.2,44.6-6.5-3.9-12.5-6.2-16.7-12.5-9-13.2-22.5-20.8-37.4-26.2-26.7-9.7-53.7-18.7-79.9-29.7-26.3-11.1-49.9-26.7-67.5-49.9-1.2-1.6-2.4-3.2-3.5-4.9-.5-.8-.8-1.8-1.9-4.2,2.5,1.4,4,1.9,5.1,2.8,34.4,26.3,73.4,44.2,112.8,61.3,7.6,3.3,15.6,5.7,23.8,8.6h0Z"/>
    <path class="st30" d="M770.2,336.3c2.8-11.6,9-19.9,18.8-26.3,8.4-5.5,15.6-12.7,23.6-19.4,2.9,32.5-2,64.2-13.7,95.8-8.2-3.5-16-6.7-23.6-10.4-1.9-.9-3.4-3.6-4.1-5.8-3.7-11-4.1-22.2-1.1-33.9h0Z"/>
    <path class="st22" d="M371.4,624.6c-10.8-12.6-22.9-23.2-37.1-31.3-1.2-.7-2.7-2.4-2.7-3.6,0-11.5,0-23,.5-34.4.2-4.1,1.8-8.2,3.6-12.6,15.2,31.5,42.6,44.3,75.1,50.8-8.4,15.4-19.6,27.2-34.8,35.4-1.5-1.4-2.9-2.8-4.6-4.4h0Z"/>
    <path class="st22" d="M210.9,321.1v-30.3c.4-.3.8-.6,1.3-.9,1.3,1.6,2.4,3.5,3.9,4.8,5.5,5,10.6,11,16.9,14.6,17.5,9.8,21.8,25.7,22.4,43.8,0,2-.2,4-.4,6-1,10.7-4.7,19.2-16.6,21.8-4.5,1-8.7,3.2-13.5,5.1-7.9-20.8-12.9-42.2-14-64.9h0Z"/>
    <path class="st22" d="M721.8,54.8c19.1-12.5,36.8-9.2,49.6,9.3,10.6,15.2,14.5,32.4,16.4,51.6-5.8-7.6-10.6-14.6-16.1-20.8-5.3-6.1-11.1-11.9-17.3-17.2-5.6-4.9-12.2-5.2-19.1-2.2-15.7,6.8-27.3,18.1-36.8,31.9-2.1,3-4.2,5.9-6.7,9.6-3.1-6.6-5.9-12.5-8.6-18.5-.3-.7,0-2,.5-2.7,11.3-14.8,22.3-29.9,38.1-41.1h0Z"/>
    <path class="st22" d="M250.4,66.4c4.4-7.3,9.5-13.4,17.2-16.6,11.9-4.9,23-2.4,33.1,4.5,16.1,11,27.3,26.7,39,41.8.6.8.7,2.5.3,3.5-2.5,5.6-5.1,11.1-8,17.2-5.4-7-10.3-13.8-15.7-20.2-8.4-10-18.7-17.3-31-21.9-6.6-2.5-12.6-1.3-17,3.4-9.2,9.8-17.8,20.1-26.6,30.3-1.8,2.1-3.2,4.4-5.2,6.4,1.4-17,5.1-33.3,13.9-48.4h0Z"/>
    <path class="st22" d="M764.1,713c6,14.4,9,28.9,6.3,44.2-2.5,13.9-11.3,23.8-21,33.1-1.4,1.4-2.9,2.6-4.6,4.2-4.3-9.1-8.5-18-12.7-26.9-2.2-4.6-6.7-9.4-6.2-13.8.4-3.9,6.1-7.2,9.5-10.8,11.3-12.1,15.5-26.9,15.5-43.1v-6c6.2,5.8,10,12.1,13.4,19.1h-.2Z"/>
    <path class="st22" d="M264.4,779.6c-17.9-24.6-14.2-63.6,8.5-85.5,0,11.6.7,22.6,5.1,32.9,4.4,10.4,12,18.2,20.8,25.2-6.7,14-13.4,28-20.5,42.8-4.5-4.9-9.1-10-14-15.4h0Z"/>
    <path class="st30" d="M782.6,128.8c9,13.8,13.3,29.3,15.3,45.4,1.8,13.9,2.1,27.9-1.9,41.6-3.4,11.5-10,20.7-19,27.8-2.7-30-5.5-59.9-7.8-90.3.7-1.6.9-2.7,1.1-3.8.3-1.7.4-3.4.8-5.1,1-4,2-8,3.3-11.8.5-1.4,1.9-2.9,3.2-3.5,1.4-.6,3.2-.3,4.9-.3h.1Z"/>
    <path class="st18" d="M299.7,905.9c-7.8-10.2-15-20.7-17.9-33.5-5-22.2-3.3-44.1,3.8-65.4,4.1-12.2,9.9-23.9,15-35.8.6-1.5,1.7-2.8,2.9-4.7,4.9,9.4,9.9,18.2,13.9,27.3.8,1.7-1.7,5.3-3.3,7.6-10.4,14.2-15.9,30.2-18,47.5-2.2,17.7-.7,35.2,3.7,52.5.3,1.3.5,2.6.3,4.2-.4.3-.4.4-.4.4h0Z"/>
    <path class="st22" d="M727,780c10,21,16.4,42.5,17.7,65.5,1.2,21.8-5.3,41-19.2,57.8-.5.6-.8,1.4-1.2,2.2-.4-.3-.9-.5-1.3-.8.4-1.7.8-3.5,1.2-5.2.5-1.9,1-3.9,1.4-5.8,5.6-27.5,4.3-54.3-8.6-79.8-2.8-5.6-6.5-10.9-10.1-16-1.6-2.2-1.9-3.6-.5-6.1,4.5-7.9,8.6-16.1,13.2-24.8,2.5,4.5,4.9,8.6,7.4,13h0Z"/>
    <path class="st15" d="M714.4,702.8c7.6,27.1,1.5,51.7-11.9,75.1-1,1.7-2.2,3.2-4,5.7-.8-2.3-1.5-3.7-1.8-5.1-2.5-10.9-7.5-20.6-14.5-29.3-2-2.5-2.6-4.8-1.4-7.7,7.1-17,14.1-34.1,21.2-51.1.9-2,2.6-3.7,5.1-7.1,2.7,7.3,4.9,13.2,7.2,19.6h.1Z"/>
    <path class="st3" d="M352.4,851.9c-18.8-23.8-22.1-50.2-13.2-78.1,6.1-19,15.2-19.8,27.4-18.8,2.1.2,4.2.2,6.3.3-2.5,7.9-5.8,15.2-7.2,22.9-4.3,23.9-11.5,47.3-11.4,71.8,0,.7-1.1,1.4-1.9,1.8h0Z"/>
    <path class="st10" d="M633.8,550.1c-3.1-5.4-6.2-10.9-9.3-16.4.5-.4.8-.8,1.2-.9,16.6-5.4,28.1-16.4,35.3-32.2,3-6.6,3.3-6.5,10.5-4.9,4.7,1.1,9.4,2.1,14.4,3.2-1,21.7-5.9,41.8-21,58.7-5-4.7-9.5-9.7-17-9.2-4.7.3-9.4,1.1-14.1,1.6h0Z"/>
    <path class="st10" d="M358,557c-10.3-11.1-15.4-24.6-18-39.2-1.1-6.2-1.7-12.4-2.6-18.8,6-1.4,11.4-2.5,16.6-4,3.9-1.2,6.1-.2,7.8,3.5,2.4,5.1,5,10.1,8.2,14.7,7,10,16.9,16.2,29,20.3-3,5.2-5.8,10.1-9.3,15.1-5.7,0-10.7,0-15.7.4-3.1.3-7.1,1-8.9,3-2.2,2.5-4.7,3.6-7.4,4.9h.3,0Z"/>
    <path class="st31" d="M265.7,570.7c-18.7,18.1-37.2,36-56.6,54.7-.5-2.8-.9-4.1-1-5.5-.5-14.3,2-28.2,7.5-41.4.6-1.4,2.9-3.3,4-3.1,17.4,4.2,32.1-9.5,36.2-22.9,2.1-7,5.9-9.3,12.3-10.1,6.1-.8,12-2.1,18.9-3.4-5.2,12.5-13,22.1-21.3,31.7Z"/>
    <path class="st3" d="M668.3,835.7c-4.4-27.3-7.3-54.5-18-79.9,20-3.6,29.1,2.6,33.9,18.4,8.2,27.4,5.6,53.2-12.3,76.5-.6.7-.8,1.8-1.2,2.6-.4-.3-.8-.7-1.3-1-.4-5.4-.8-10.8-1.2-16.6h0Z"/>
    <path class="st18" d="M578.9,538.8c-7.2,8-14.1,15.6-21.1,23.2-.5-.3-1-.6-1.5-.9v-6.2c0-15.8,0-31.6.2-47.4.1-16,5-30,17.4-41.6,1.4,3,2.9,5.7,3.9,8.5,3.3,9.2,6.5,18.5,9.6,27.8.6,1.7,1,3.7.6,5.4-2.8,10.4-5.9,20.7-9.1,31.3h0Z"/>
    <path class="st31" d="M803,575.3c1.4.2,3,.2,3.2.8,6.6,15.1,10.3,30.7,8.3,48.6-27.9-27.3-59.3-49.8-78.7-85.8,4.7.8,8,1.3,11.3,1.8,2.6.5,5.2,1.3,7.8,1.5,7.3.5,11.2,3.6,13.4,11.3,4.6,15.8,19.3,24.4,34.6,21.7h.1Z"/>
    <path class="st22" d="M387.3,705.7c-5.3-3.5-7.1-8.2-5.6-14.1,7.1-27,20-50.5,41.2-69.1,1-.8,2-1.7,3.2-2.7,1.3,4.9,3,9.4,3.5,14.1.3,2.5-1.3,5.4-2.6,7.7-8.7,15.5-15,31.9-18.2,49.3-1.6,8.6-2.1,17.4-3.2,26.6-5.9-3.8-11.9-7.7-18.3-11.8Z"/>
    <path class="st3" d="M759.4,157.6c.9,8.2,1.7,15.9,2.5,24.2-8.1-4.8-15.8-9.2-23.4-13.8-.9-.5-1.5-2.1-1.5-3.2-1-22.4-6.5-43.7-15.3-64.1-1.2-2.7-.8-4.3,1.5-5.8,6-3.8,11.9-7.7,18.6-12,8.9,24.8,13.8,49.4,17.6,74.8h0Z"/>
    <path class="st3" d="M288.5,148.6c-.5,4.2-1.5,8.1-1.3,11.8.4,5.2-2.2,7.6-6.3,9.9-6.3,3.5-12.3,7.6-18.9,11.7,3-33.6,8.3-66.3,19.7-99.4,7.2,5,13.8,9.4,20,14.2.9.7.7,3.9,0,5.5-6.5,14.7-10.8,30-13.2,46.3h0Z"/>
    <path class="st22" d="M640.2,685.8c1.3,5.1,4.3,10.4,3,14.2-1.3,3.6-7.1,5.7-11,8.3-4.7,3.1-9.5,6-14.8,9.4-.3-5.9-.4-11.2-.9-16.6-2-21.6-10.1-41.2-19.9-60.2-2.2-4.2-2.9-7.8-1.2-12.2,1-2.6,1.3-5.5,2-8.7,21.7,17.1,34.5,39.7,42.7,65.7h0Z"/>
    <path class="st22" d="M467,513v48c-13.1-9.9-24.2-20.2-28-36.6-2.6-11.4-4.4-22.3.6-33.6,3.6-8,6.1-16.5,9.3-25.2,14.7,13,18.4,29.2,18,47.4h.1Z"/>
    <path class="st22" d="M341,124c2-5.1,3.8-9.9,6-15.5,17.2,18.2,31.5,36.7,32.9,61.9.8,14,.1,28.1.1,43.3-2.1-3.7-3.9-6.5-5.4-9.6-1.6-3.4-3.3-7-4.2-10.6-4.7-18.3-15.2-32.7-29.7-44.4-4.3-3.5-5.5-6.8-3.7-11.9,1.5-4.2,2.6-8.6,4-13.3h0Z"/>
    <path class="st22" d="M685.3,133.7c3.9,8.2,1.7,13.5-5.3,18.7-15.1,11.1-23,27.1-28,44.8-1.6,5.5-4.7,10.6-7.6,15.6-4.8-38.4,0-73.8,29.6-101.7.6-.6,1.2-1.1,3-2.8,2.9,8.8,5.6,16.9,8.4,25.3h-.1Z"/>
    <path class="st29" d="M869.7,698.3c-14.8-21.9-29.3-43.6-43.9-65.2.5-.4.9-.9,1.4-1.3,19,10.1,35.3,23.5,48.3,40.8,21.5,28.6,31.8,60.8,26.5,83-6.5-22-18.1-40.2-32.3-57.3Z"/>
    <path class="st25" d="M162,657c10.8-10.3,21.4-20.1,35-25.8.4.4.8.7,1.2,1.1-.9,1.6-1.8,3.3-2.8,4.8-17,24.4-34,48.8-51.2,73.1-8.8,12.4-16.1,25.5-20.9,40.1-.4,1.4-1,2.7-1.9,5.5,0-9-.8-16.6.1-23.9,4-29.8,19.5-53.7,40.4-74.8h.1Z"/>
    <path class="st18" d="M690.7,604.5c.7,1.4,1.2,2.8,1.2,4.3,0,19.2-.5,38.3,0,57.5.4,11.7-7.6,19.6-19,25.9.7-20.5-4-39.1-18.3-54.6,10.8-12.6,21-25.1,36-33.1h0Z"/>
    <path class="st3" d="M301.6,340.3c-2.7-20.4-3.4-40.4.8-59.9,9.8,2.5,19.3,4.8,28.7,7.4,1.2.3,2.6,2.1,2.7,3.3.9,10.8,1.7,21.5,2.1,32.3,0,1.6-1.2,3.8-2.6,4.7-9.6,6.8-19.5,13.3-29.9,20.3-.6-2.9-1.2-5.3-1.8-8.2h0Z"/>
    <path class="st22" d="M342.5,610.5c9.1,8.7,18,17.2,27.2,25.9-14.8,16.5-19.8,35.3-18.9,55.9-8.6-2.2-18.7-14.2-18.7-22.6-.2-20.5-.2-40.9-.2-61.4s.2-2.2.4-4.4c3.7,2.4,6.9,4.3,10.3,6.6h-.1Z"/>
    <path class="st29" d="M689.2,292.5c1.2-2,2-4.5,3.5-4.9,9.2-2.6,18.6-4.7,28-7,5.1,17.9,4.4,51.5-1.8,67.1-10-6.7-20-13.2-29.7-20.1-1.4-1-2-4.2-1.9-6.3.4-9.5,1.2-18.9,2-28.8h0Z"/>
    <path class="st3" d="M488.1,449.7c.4,1.5.7,2.5,1,3.6-7.3-6.1-16.6-8.5-21.8-18.1-11-20.4-25.8-38.2-44.1-52.9-1-.8-1.8-2.4-1.9-3.6-.2-7.6,0-15.3,0-24.2,33.8,24.1,55.5,55.7,66.9,95.2h-.1Z"/>
    <path class="st29" d="M552.8,441.7c-6.2,4.6-12.3,8.8-19.4,13.8,12.1-41.8,33.3-75.7,68.7-101v25c0,1-1.2,2.2-2.1,3-19.3,16.8-35.8,35.6-47.1,59.2h0Z"/>
    <path class="st16" d="M476.7,353.3c-21.1-29.2-28.1-63-33.3-97.7,1.2,2.1,2.6,4,3.7,6.2,9.6,19.6,18.8,39.3,28.7,58.7,7.9,15.4,16.5,30.4,24.8,45.6,5.8,10.5,7.5,21.7,6.1,33.1-9.8-15.1-19.8-30.3-29.9-45.9h-.1Z"/>
    <path class="st6" d="M567.1,567.2c6.8,13.6,13.9,27,19.4,41,1.8,4.6.4,10.9-.7,16.2-2,9.6-5.9,18.5-11.7,27.3-6.3-7.8-12.2-15.1-18-22.5-.8-1-.5-2.9-.5-4.4,0-10.3.5-20.7-.2-30.9-.7-11,4.6-19,11.6-26.7h.1Z"/>
    <path class="st29" d="M746,450.1c3,1.8,5.6,3.3,8.3,4.9,0,.5-.2.9-.3,1.4-5.8-.4-11.6-.7-17.4-1.3-13.9-1.5-27.7-3.2-40.7-9.1-19.1-8.7-30.2-23.3-34.6-43.7,10,.7,20.1,1.4,27.8,8.9,16.6,16.3,36.2,28.1,56.9,38.9h0Z"/>
    <path class="st25" d="M360.3,408.4c-7.1,26.4-26.6,38.1-50.8,43.3-13.1,2.8-26.7,3.2-40.1,4.6-.4,0-.8-.3-2.4-.8,6.3-3.5,11.6-6.7,17.1-9.4,17.9-8.8,34.4-19.6,48.7-33.5,4.4-4.2,9.5-6.6,15.3-7.7,4.4-.8,8.7-1.7,14-2.8-.7,2.4-1.2,4.2-1.8,6.4h0Z"/>
    <path class="st3" d="M397,861.3c1.1-6.3,2.2-12.1,3.2-17.9.5,0,1-.2,1.5-.2,6.3,7,12.8,13.9,18.8,21.2,1.2,1.4,1,4.1,1.2,6.3,2.2,23.7,4,47.4,10.9,70.4,0,.3-.1.6-.2,1.2-25.6-20.9-38.2-47.3-35.5-80.9h.1Z"/>
    <path class="st29" d="M607.9,924.9c-5.5,6.2-10.8,12-16.1,17.9-.4-.2-.8-.5-1.1-.7,1.7-7.5,4-14.9,5-22.5,2.4-16.8,4.1-33.6,6.3-50.4.3-2.6,1.4-5.5,3.1-7.5,5.3-6.4,11-12.4,16.6-18.6,11,15.5,3.3,59.3-13.9,81.8h.1Z"/>
    <path class="st6" d="M436.7,613.1c2.1-6.9,3.8-13.5,6.4-19.7,3.6-8.7,7.9-17.1,12.3-26.7,6.3,7.1,12,13.3,12.4,22,.5,12.3.2,24.6,0,36.9,0,1.4-.5,3.1-1.3,4.1-5.6,6.9-11.4,13.7-17.5,21-7.3-11.6-12.1-23.6-12.4-37.6h.1Z"/>
    <path class="st3" d="M890.9,674.9c-15.4-20.8-33.2-38.8-55.9-50.9-7.7-4.1-10.6-8.3-10.3-16.9.3-6.3-2.2-12.7-3.5-19-.4-2.1-1.1-4.1-1.7-6.7,1.1.2,1.8,0,2.2.4,28.7,19.6,52.9,43.1,65.4,76.5,2,5.4,3.2,11.1,4.7,16.7,0,0-.2.2-.3.2-.2,0-.3,0-.7-.4h0Z"/>
    <path class="st35" d="M456.8,967.3c-8.4-11.6-13.2-24.9-16.7-38.7-4.3-16.5-6.3-33.3-7.2-51.7,2.2,1.8,3.6,2.8,4.8,4,6,6.2,12.1,12.4,18,18.7,1.1,1.2,1.9,2.7,2.4,4.2,4.8,16.6,9.4,33.2,14.1,49.8.2.8.1,1.6-.2,2.9-1.8.8-3.5,1.8-4.8,1.4-3.1-1.1-4.8-.5-6.1,2.6-1,2.4-2.9,4.4-4.3,6.6v.2h0Z"/>
    <path class="st29" d="M836.2,774.9c12.9,22.3,15.3,45.6,9.3,70.1-2.9,11.9-9.4,21.7-17.4,31.5.3-36.1-5.2-71.8,3.1-107.5,1.6,1.8,3.2,3.8,5,6h0Z"/>
    <path class="st13" d="M717,487c-15.8-8.3-27.4-20.2-36.1-36.2,1.4.4,2.3.4,2.9.8,15.4,9.6,32.8,12.4,50.5,14.4,7.9.9,15.9,1.6,23.9,2.1,3.7.2,5.1,1.8,5.4,5.5,1,10.2-5.3,18.2-15.7,19.4-10.7,1.2-20.9-.9-30.8-5.9h-.1Z"/>
    <path class="st29" d="M191.7,871.3c-25.5-30-17.5-86.4.7-101.7,8.5,34.9,3.9,70.3,3.2,106.3-1.4-1.7-2.5-3-3.8-4.6h0Z"/>
    <path class="st30" d="M529,687.9c4.5,0,8.5-.2,12.5,0,5.3.2,7.5,2.5,7.5,7.8v18.2c-24.8-8.2-49.3-8.5-74.3.2,0-6.9-.3-14,0-21.1.3-5,4.6-5.1,8.2-5.1,12.3,0,24.6,0,37,.2h9.1v-.2h0Z"/>
    <path class="st21" d="M333.6,717.9c3.3,8.7,6.7,17.3,9.9,26.1.3.9.2,2.6-.4,3.2-9.3,10.2-14.3,22.6-18.1,35.9-13.8-21.6-21.7-44.5-17-70.7,1.5,0,2.4,0,3.6.2-2.7,4.7,1.1,5.8,4.1,7.1,2,.9,4.2,1.5,6.4,2.6,1,0,2,0,3.2-.4.6-.7.8-1.3,1.1-1.9-.4,0-.7-.2-1.1-.3,0,.8-.2,1.5-.7,2.3-1.1,0-1.9,0-2.6-.3.7-2,1.3-3.7,1.5-4.2,3-.2,5.2-.4,7.5-.5h.3c1,.5,1.6.7,2.3.9h0Z"/>
    <path class="st22" d="M430.1,452.9c6.9,3.8,9.2,9.3,6.7,16.6-2.1,6.1-4.1,12.2-6.4,19.3-8.4-12.9-21.1-17.5-34.3-21.7-12.7-4-18.5-14.5-16.4-29.6,17.5,2.5,34.1,8.1,50.5,15.4h-.1Z"/>
    <path class="st22" d="M630.7,439.7c4.5-.9,8.5-1.8,12.6-2.6,3.7,12.8-2.7,25.2-15.2,29.7-3.8,1.3-7.6,2.5-11.4,3.6-9.6,2.8-17.2,8.5-23.5,17.1-3.3-9.4-6.5-18.2-9.3-27.1-.3-1,1.4-3.6,2.7-4.1,12.9-5.3,25.9-10.2,38.9-15.2,1.5-.6,3.2-.8,5.2-1.3h0Z"/>
    <path class="st3" d="M364.9,847.9c-.3-17.4,3.1-33.7,9-51.4,3.1,4.9,5.8,8.4,7.6,12.4,3.5,7.9,6.6,16,9.7,24,.4,1,.3,2.3,0,3.3-4.5,16.4-5.7,33.1-3.2,49.9,0,.4-.1.9-.3,2.4-11-12.1-23.2-22.5-22.7-40.8v.2h-.1Z"/>
    <path class="st29" d="M655.8,819.2c1.1,9.7,2.5,18.9,2.9,28.2.5,8.9-2.2,17.1-8,24.1-4.8,5.8-9.6,11.5-14.5,17.3,0-10.7.4-20.6,0-30.5-.3-6.4-1.7-12.9-3.2-19.1-.9-3.9-.8-7.4.9-11,3.8-8,7.2-16.1,10.9-24,1-2.2,2.7-4.1,5-7.6,2.2,8.4,4.1,15.3,6,22.6h0Z"/>
    <path class="st34" d="M517.6,912c9.7-23.6,28.6-54.2,39.8-64.5,7.2,20.3-11.8,63.9-39.9,91.1,0-9,0-17.6.1-26.7h0Z"/>
    <path class="st22" d="M535.4,322.4c-6.1,10.4-12,20.6-18.6,32.1,0-6.6.5-11.7,0-16.7-2.5-20.2,4.8-37.6,14.5-54.4,5.7-9.9,12-19.5,18.8-30.4,2.9,25.8-2,48.3-14.6,69.5h0Z"/>
    <path class="st22" d="M804.9,222.9c.8.6,1.8,1.5,2,2.6,1.7,14.5,3.4,29,4.8,43.6.2,1.9-.9,4.2-2,6-5.9,9.6-13.4,17.7-23.3,24.6-.9-6.8-1.6-13.3-2.8-19.7-1.3-6.5-2.9-13-4.8-19.3-1-3.2-.5-5.1,2.2-7.1,10.6-8,18.3-18.2,23.9-30.6h0Z"/>
    <path class="st18" d="M244.5,260.8c-2.8,12.8-5.3,25.3-8,38-10.5-6.7-17.9-16.4-24.4-26.9-.4-.6-.5-1.6-.4-2.4,1.5-15.8,3.1-31.7,4.6-47.5h1.3c2.6,4.5,4.6,9.5,7.8,13.5,5.3,6.5,11.1,12.7,17.2,18.5,2.2,2.2,3.4,3.8,1.8,6.9h0Z"/>
    <path class="st16" d="M498.6,896.4c8.4,12.5,9.3,26,7.9,40-20.2-8.2-43.9-58.9-41.2-89.7,14.3,15,24.4,31.7,33.3,49.7h0Z"/>
    <path class="st22" d="M613.1,752.1c2.7,12.1,3.3,23.8.4,35.5-4.6,18.7-17.5,29.2-34.9,35.2-6.5,2.3-13.4,3.6-20.4,5.5,3.4-6.9,6.4-13.1,9.6-19.3.5-.9,1.5-1.8,2.5-2.3,21.8-11.4,32.9-30.7,39.5-53.4.5-1.6.9-3.2,1.7-5.7.7,1.8,1.2,2.9,1.7,4.4h-.1Z"/>
    <path class="st18" d="M633,206c0,4.7-.3,8.9,0,13,.6,4.8-1.2,7.8-5.2,10.1-8.7,5.1-17.2,10.4-26,15.6-6.5-21.7,10.6-61.4,31.1-71.7v33h.1Z"/>
    <path class="st22" d="M415,800c-8.8-16.7-8.5-33.7-3.2-52.4,1.6,4.9,2.7,8.4,3.9,12,7,20.4,18.5,37.2,38.1,47.4.9.5,1.8,1.5,2.2,2.5,2.7,5.9,5.3,11.8,7.8,17.6-11.9.2-39.2-9.4-48.9-27h.1Z"/>
    <path class="st18" d="M503.8,309.2c4,7.6,3.2,15.5,3.2,23.3v20.6c-19.8-30.3-38.9-59.7-33.2-98.1,12.5,16.7,22.7,34.4,30,54.3h0Z"/>
    <path class="st22" d="M851.1,526.9c-5.7-4.5-11-8.9-16.4-13.2.3-.5.5-1,.8-1.5,14.6-3.2,28.4-1,40.7,8,20.3,14.8,25.6,36.1,24.7,60-12.1-21.9-29.6-38.5-49.7-53.2h0Z"/>
    <path class="st26" d="M554.4,946c3.5-13.8,7-27.7,10.5-41.5.2-.8.3-1.8.8-2.3,7.9-8.4,15.8-16.8,24.3-24.8,0,22.5-3.6,44-11.5,65.3-7.3,4-13.9,7.6-20.5,11.1-1.5-2.5-2.7-4.4-4-6.4,0,0,0-.3.4,0,.9,0,1.4-.2,1.9-.4-.6-.3-1.3-.6-1.9-1h0Z"/>
    <path class="st22" d="M124.1,578c-.5.9-.9,1.4-1.2,2-4.2-10.6,3.3-37.1,14-49.8,13.3-15.8,30.3-21.4,52-17.9-3.6,3.3-6.3,6.1-9.2,8.6-7.3,6-14.9,11.8-22.2,17.8-13.3,11.1-24.2,24.3-33.3,39.4h-.1Z"/>
    <path class="st30" d="M400.1,232c-7.6-3.3-10.1-8.5-9.5-16.6.9-11.6,0-23.3,0-35v-6.5c17.9,4.8,36.2,46.6,30.9,70.6-7.1-4.1-14.1-8.2-21.4-12.4h0Z"/>
    <path class="st7" d="M284.9,198.8c-8.6,7.4-17,14.6-25.9,22.2.8-12.4-.8-24.8,12.2-32.7,14.9-9.1,29.1-19,43.8-28.4,2.6-1.7,6-2.2,10.1-3.7-.9,6.3-2,11.1-2.2,15.9-.3,8.5-3.2,13-12.5,15-8.8,1.9-16.9,7.4-25.6,11.6h0Z"/>
    <path class="st7" d="M763.9,207.4c.3,4.9.5,9.4.7,13.8-.5.5-1,.9-1.5,1.4-.4-1-.5-2.3-1.1-3.1-12.8-15.6-29.3-25.8-48.3-32.3-2.8-1-5.8-1.5-8.6-2.5-1.1-.4-2.7-1.4-2.8-2.3-1.4-8.1-2.5-16.3-3.8-25.6,2.7.6,4.6.7,6.2,1.4,3.7,1.8,7.5,3.7,11,6,12.3,8,24.4,16.1,36.6,24.2,6.7,4.4,11.6,10,11.7,19h-.1Z"/>
    <path class="st29" d="M479.3,243.7c-7.1-9.6-14-18.9-20.9-28.2,13.7-2.9,32.9,5.5,41.3,17.8,4.9,7.2,7.8,14.8,7.4,23.8-.5,10.1-.1,20.3-.1,30.7-9.2-14.8-18.3-29.3-27.6-44.2h0Z"/>
    <path class="st8" d="M795.2,529.8c-5.2,4.5-10.3,7.4-18.2,5.5-14-3.3-28.4-4.9-42.6-7.3-1.2-.2-2.7-.7-3.5-1.6-6.7-8.4-13.3-16.9-19.7-26.1,22.9,15.3,46.7,19.9,72.7,7.4.6,1.2,1.3,2.8,2,5.1,3,6.1,6.1,11.5,9.2,16.9h0Z"/>
    <path class="st18" d="M838.4,731.6c13.3,11.4,24.2,23.8,26.1,41.9,1.1,10.3-.8,20-4.2,29.6-3.1-8.1-5.9-16.1-9.3-23.8-4.1-9.3-11-16.5-18.6-23.2-1.7-1.4-2.7-3.9-3.4-6.1-2.6-8.2-4.9-16.5-7.4-24.7-.4-1.4-1.1-2.7-.8-4.9,5.8,3.7,11.5,7.3,17.5,11.2h.1Z"/>
    <path class="st28" d="M238,511.4c.5-2.9,2.1-2.7,4.3-1.8,23.1,9.4,44.8,5.7,65.3-7.6.8-.5,1.9-.6,2.9-.9l1,1.2c-5.4,6.6-10.9,13.1-16,20-2.9,3.8-6.2,5.6-11,6.3-14.6,2-29.1,5-43.6,7.2-5.2.8-8.9-2.7-11.9-7.2,3.1-6.2,6.1-11.7,9.1-17.2h0Z"/>
    <path class="st18" d="M161.9,799c-7.8-25.3-.7-46,18.3-62.8,6.8-6,14.9-10.7,23-15-2.5,8.1-5.7,16.1-7.4,24.4-1.2,5.6-3.2,9.6-7.6,13.5-11.8,10.4-19.3,23.5-22.3,39.1-.3,1.8-.8,3.5-1.6,7-1.1-2.8-1.7-4.3-2.4-6.2Z"/>
    <path class="st32" d="M801.6,436.4c-15.9-6.3-31.1-13-43.6-24.6-4.1-3.8-8.3-7.6-12-12.1,9.1.6,17.4,2.8,25.1,7,6,3.2,11.6,7.3,17.8,10.1,15.1,6.9,30.3,13.6,45.7,19.8,9.3,3.7,17,8.9,23,18.9-19.4-6.6-37.5-12.8-56-19.1h0Z"/>
    <path class="st3" d="M529.4,266.4c-4.1,7.2-8,14.1-12.2,21.5,0-14-1.3-27.5.4-40.6,1.6-12.7,10.6-21.6,22.1-27.3,7.9-3.9,16.4-5.2,24.6-5-11.5,17-23,34.1-34.8,51.5h-.1Z"/>
    <path class="st5" d="M184.1,439c18.4-8.2,36.9-15.4,54.4-24.6,11.5-6.2,22.9-12.1,35.6-15.1.7-.2,1.5-.3,2.9-.5-8.9,12.6-20.1,21.6-33.3,28.1-24.2,11.8-49.7,19.7-75.4,27.4-.3,0-.6,0-1.3-.2,4.1-6.9,9.5-11.9,17.1-15h0Z"/>
    <path class="st11" d="M707.3,939.5c12.4-14.1,24.7-27.9,37.5-42.3-.3,5.2,0,10.3-1,15.1-1.6,7.6-3.4,15.3-6.2,22.5-2.8,7.4-7.9,13.3-14.4,18.1-8.8,6.5-17.4,13.2-26.8,19.5,2-11.4,5.7-22.2,10.9-32.9h0Z"/>
    <path class="st33" d="M287.9,939c-6.7-13.2-8.9-27-8.9-42,.9.6,1.5.8,1.9,1.2,9.2,10.7,17.8,22,27.7,32.1,9.7,9.9,13.5,22.3,17.5,34.8.7,2.3,1.2,4.8,2.1,8.4-6-4.4-11.2-8-16.2-11.9-8.5-6.8-18.4-12.2-24-22.6h-.1Z"/>
    <path class="st26" d="M557.4,383.1c-13.4,17.8-23.7,37.3-30.4,58.6-3,9.5-5.9,19-9.1,29.4-5.9-39.5,9.8-83.6,46.3-113.3.9.8,1.4,1.8,1.1,2.1-3.8,4-10.2,6.8-5,14.5h-4.4c0,2.2-.2,4.1,0,5.9.1,1,.9,1.9,1.4,2.8h.1Z"/>
    <path class="st18" d="M484.1,561.2c-2.3,2.1-4.3,4-6.9,6.5v-71.5c4.5,4.2,8.8,7.2,11.6,11.2,6.1,9,11.5,18.6,17.2,28,1.5,2.5,1.1,4.5-1.2,6.5-6.9,6.2-13.6,12.7-20.7,19.3Z"/>
    <path class="st3" d="M431.4,403.6c8.1,10.4,16.2,20.2,23.6,30.7,6.5,9.2,9.2,19.9,10.3,30.7-8.2-6.1-16.2-12.1-24.3-18.1-.7-.5-1.4-1-2.2-1.2-10.4-2.3-13.3-9.8-14.1-19.4-.9-10.2-2.9-20.3-4.4-30.4.6-.3,1.2-.7,1.8-1,3,2.8,6,5.7,9.3,8.7h0Z"/>
    <path class="st29" d="M559.1,465.1c2.1-8.4,3-17.5,6.6-25.2,8.3-17.7,21.9-31.6,36.6-45.3-.3,6.2-.1,12.4-1,18.5-1.1,8.1-2.8,16.1-4.5,24-.3,1.5-1.7,3.3-3,3.9-13,5.7-24.2,14-34.4,24h-.3Z"/>
    <path class="st18" d="M690.2,480.8c3,2.6,5.7,4.9,9.6,8.2-22.8.5-41.3-10.4-62.3-15.8,13.8-8.5,17.9-20.8,17-35.4l1.2-.9c3.2,3.1,6.9,5.8,9.5,9.3,4.8,6.5,8.9,13.7,13.6,20.3,3.4,4.9,7.4,9.4,11.4,14.3Z"/>
    <path class="st19" d="M308.5,485.3c-11.3,7.1-23.5,9.9-36.6,6.8-8-1.9-13.2-9.7-12.7-17.9.2-3.9,1.8-5.9,6-6.2,8.9-.5,17.9-1.5,27.5-1.9,5.8.5,11,1.3,15.2-2.6.4-.1.9-.3,1.9-.2,4.1,2.3,4.7,5.3,2.9,8.7-2.1,4-4.4,7.9-6.7,12,.6.3,1.5.8,2.4,1.3h.1Z"/>
    <path class="st18" d="M382.9,471.4c.3.9.5,2.2.3,2.3-18.5,5.1-35.6,15.4-55.5,15.3h-2.4c-.4-.5-.9-1-1.3-1.5,1-.4,2.2-.6,3-1.2,10.5-8.5,17.9-19.6,24.9-31,2.9-4.8,6.4-9.3,10-13.6,1.5-1.8,3.8-2.9,6.7-4.9,0,14.1,2.1,26.4,14.3,34.6h0Z"/>
    <path class="st22" d="M524.2,522.2c5.9-9.4,12.1-18.2,21.7-25.2v70.2c-9.6-9.2-18.9-18-28-27-.9-.9-.9-3.5-.3-4.8,1.9-4.4,4.3-8.6,6.6-13.2h0Z"/>
    <path class="st0" d="M848.8,727.1c-9.7-6.5-19.3-13.1-29.1-19.5-16.2-10.5-23.7-25.3-22.6-45.5,4.3.6,8.5,1.2,13.2,1.9.5,15.5,11.3,23.8,22.1,32.4,7.4,5.9,14,12.6,17.2,22,.6,1.8,2.5,3.2,3.6,5.2-1.6,1.5-3,2.5-4.4,3.5h0Z"/>
    <path class="st4" d="M329.8,356.9c3.8-6,7.3-12.4,11.6-18,3.1-4,7.3-7.2,11.3-10.2,14.1-10.5,28.4-20.9,43.2-30.8-15.1,20.9-27.3,43.9-46.7,62-3,.3-5.5,0-7.7.9-5.2,2-7.9-2.3-11.7-3.8h0Z"/>
    <path class="st5" d="M773.7,709.5c-5.4-11.3-12.6-20.7-21.8-28.7-2.9-2.5-5.1-6-6.9-9.4-3.3-6.3-6-13-8.8-19.5-.9-2-1.1-4.3-1.6-6.4.4-.3.9-.6,1.3-.9,2.6,1.9,5.5,3.5,7.7,5.8,11.8,12.6,23.4,25.4,35,38.1,3.7,4,5.3,8.8,4.6,14.2-.8,7.2-1.7,14.3-2.6,21.5h-1.6c-1.7-4.8-3.5-9.5-5.4-14.6h0Z"/>
    <path class="st18" d="M730.9,664.1c6,12.1,9.5,24.6,9.8,37.7.3,12.2-3.6,23-12.6,33.4.5-23.4-5.2-43.9-14.9-64,4.2-5,8.6-10.1,13.3-15.7,1.6,3,2.9,5.6,4.4,8.6Z"/>
    <path class="st22" d="M293.1,732c-9-11.1-11.1-23.7-9.7-37,1.5-14.1,6.6-27,13.3-39.2.7.2.9.2.9.3,4,4.7,10.2,8.8,11.4,14.1,1.1,4.8-3.4,10.8-5.4,16.3-5.7,15.1-8.2,30.8-7.7,47.6-1.2-.8-1.9-1.3-2.8-2.1h0Z"/>
    <path class="st18" d="M277.1,653.1c3.5-2.8,6.7-5.5,9.8-8.1.5.2,1,.3,1.5.5-.1,1.7.1,3.5-.5,5-3.5,8.1-7.1,16.1-10.8,24.1-.8,1.7-2,3.6-3.5,4.7-14.2,10.8-22.9,25.2-27.8,42.2-.2.6-.6,1.1-2.1,1.8-.9-4.5-2-8.9-2.7-13.4-1.4-9.4,0-18.1,7-25.4,9.8-10.2,19.2-20.7,29-31.4h.1Z"/>
    <path class="st29" d="M186.9,592.7c0-.3.2-.6,1.1-.8,3.7-.8,6.8-1.5,10.7-2.5-.2.8-.4,2.3-1,3.6-.6,1.1-2.1,1.9-2.4,3.1-1.1,4.5.3,9.2-2.3,14-1.7,3.1-2.3,5.8-6,7-1.5.5-2.9,2.1-3.9,3.4-6.7,9.4-16.9,12.8-28.1,17.3-1.9,3.6-4.4,8.4-7,13.4-2-1.8-4.1-3.6-6.2-5.4,8.1-16.4,19.3-30.3,33.2-42.6,1.8.2,4.1.8,4.2.5,1.7-4.3,7.9-5.5,7.8-11h0Z"/>
    <path class="st23" d="M390.5,428.4c-8.6-1-16.8-2-25.2-2.9,2.4-7.1,4.7-14.3,7.3-21.5.3-.9,1.9-1.9,2.9-2,20.5-2.8,38.4,11.9,39.7,33.2-8.2-2.2-16.3-4.4-24.8-6.8h0Z"/>
    <path class="st17" d="M611.8,420.9c5.5-12.9,16.5-16.9,28.8-18.8,1.1-.2,2.3,0,3.5-.2,4.8-.9,6.9,1.1,8.1,5.8,1.6,6.4,4.3,12.4,6.6,19.2-17.7-2.1-33.8,2.8-51.3,8.6,1.6-5.3,2.9-9.8,4.3-14.6h0Z"/>
    <path class="st5" d="M475.7,933.3c-1.5-6-2.8-11.7-4.1-17.3.4-.2.7-.4,1.1-.6,5.2,6.2,10.5,12.4,15.7,18.7,1.9,2.3,3.6,4.8,5.6,7,9.3,10.2,15.3,21.5,13.1,36-.8,5.5-.1,11.3-.1,18.4-14-19.8-24.6-39.8-31.3-62.3h0Z"/>
    <path class="st16" d="M538.7,337.9c3.8-7.2,7.6-14.5,11.9-21.7-.3,4.7-1.2,9.4-2.1,14.1h-1.3c.8.8,1.5,1.6,1.3,1.4,3-.7,4.9-1.1,6.8-1.5-1.2-3.7,2.6-7.4,8.6-8.2-6,11-11.8,22.2-18.2,33-8.6,14.5-17.8,28.7-26.8,43.1-.3.5-.7.9-1.7,2.2-.7-11.5-.8-22,4.5-31.7,4.9-9.1,9.8-18.1,15.2-27.2,1.5.7,2.5,1.4,3.5,2.1.5-.4.9-.7,1.4-1.1-1.1-1.5-2.1-3-3.2-4.4M554.4,336.5"/>
    <path class="st3" d="M255.3,271.9c8.4,17.2,18.6,32.6,32,45.9,2.5,2.5,2.6,7.4,3.8,11.2-.4.3-.9.6-1.3.9-4.3-2.2-8.8-4.1-12.9-6.5-9.2-5.4-18.2-10.9-27.2-16.6-1.2-.7-2.6-2.6-2.4-3.8,1.6-10.6,3.6-21.2,5.5-31.8,0-.6.5-1.1.9-2.1.7,1.2,1.1,1.8,1.6,2.8h0Z"/>
    <path class="st3" d="M768.6,310.6c-11.7,6.7-23.1,13.2-34.9,19.9-.5-6.5,1.1-11,5.3-15.2,12.3-12.2,21.6-26.5,28.2-42.5.6-1.4,1.4-2.6,3.4-4,1.8,8.5,3.5,17.1,5.3,25.6v1c2.4,7.3-.6,12-7.5,15.3h.2Z"/>
    <path class="st18" d="M526.3,981.3c-3.1,5-5.9,9.6-9.3,15,0-12.7-.2-24.5.2-36.3,0-2.5,2.3-5.1,3.9-7.4,4.8-6.4,9.7-12.7,14.6-18.9,4.9-6.1,9.9-12,14.9-18.2,1.6,9.5-10.7,42.5-24.4,65.8h0Z"/>
    <path class="st4" d="M667.9,353.3c-7.9-10.5-16-20.8-23.8-31.4-4.7-6.5-8.9-13.4-13.3-20.1.3-.4.6-.7,1-1.1,2.6,1.7,5.3,3.4,7.8,5.2,11.7,8.6,23.7,16.8,34.7,26.1,5.4,4.6,9.2,11.2,13.6,17.5-1.1,1.7-1.8,3-3,3.7-2.4,1.4-4.9,2.7-7.5,3.5-1.9.6-4.1.3-6.1.4-.8-.7-1.5-1.5-2.4-2.7-.4-.7-.8-.9-1.1-1.1h0Z"/>
    <path class="st33" d="M588.4,274.7c1.9-4.1,3.6-7.8,6-12.8,1.9,4.4,3.1,7.6,4.6,10.6,4.4,8.5,8.9,17,13.4,25.5.7,1.3,1.7,2.9,1.4,4-2.1,8.5-4.5,16.9-6.9,25.4-13.8-7.4-23.4-34.6-18.6-52.7h.1Z"/>
    <path class="st26" d="M463.2,360.6c10.4,8.1,18.4,18.2,24.9,29.5,3.1,5.3,5.5,11,8.1,17.2-1.1,4.1-2.3,7.5-2.9,10.9-.3,1.6.4,3.5,1,5.1.4,1.2,2,2.1,2,3.2.2,6.4,4.1,7,9.1,6.2.4,3.8.9,7.6.9,11.7-2.5-4.3-5.6-4.1-9.2-1.6-8.5-26.5-22.1-50.1-39.9-71.7,4-2.8,7.6-5.2,6-10.6M500.6,437.7h-2.1c.2.4.5,1.1.6,1.1.6,0,1.1-.4,1.4-1.2M491.2,414.9c.2,0,.4,0,.7-.1,0-.3-.2-.6-.2-.9-.2.2-.3.4-.4,1h-.1Z"/>
    <path class="st24" d="M426.2,268.2c.8-1.7,1.5-3,2.2-4.4,16.8,15.6,3.7,55.3-11.8,63.2-2.4-8.7-4.8-17.2-7-25.8-.2-.9.6-2.1,1.1-3.1,5.1-9.9,10.2-19.7,15.5-29.9h0Z"/>
    <path class="st18" d="M411.4,539.6c6.8,11.2,11.3,22.7,8.7,35.7-.5,2.7-1.6,5.3-2.7,8.6-8-1.8-15.6-3.3-23.1-5.3-1-.3-2.4-2.4-2.2-3.5,2.4-13.3,8-25.2,16.1-36,.3-.5,2,0,3.2.4h0Z"/>
    <path class="st18" d="M640.6,659.5c-1.8-3.6-3.5-6.9-5.1-10.2,7.6-5.6,12.3-5.2,17.4,2.5,13.6,20.6,13.4,42.2,4.1,64.3-.4,1-1,2-2.2,4.3.6-22.3-5.5-41.8-14.1-60.9h-.1Z"/>
    <path class="st18" d="M375.9,676.9c-1.9,7.3-4.2,14-5.4,21-1.2,6.8-1.2,13.8-1.8,20.6-12.5-18.9-10.8-52,3.6-69.2,2.6-3.1,5.5-4.6,9.6-2.9,2.1.9,4.4,1.4,6.4,2-4.1,9.4-8.2,18.8-12.3,28.5h-.1Z"/>
    <path class="st22" d="M626.2,557.8c2.1,6.5,4.1,12.6,6.4,19.7-9.2,2-17.6,3.9-25.7,5.7-7.5-12.1-4-34.2,7.6-46.2,4,7,7.8,13.7,11.7,20.8Z"/>
    <path class="st9" d="M241.2,635.3c6.9-17,19.4-28.8,33.6-40.1.8,6.5,1.6,12.4,2,18.4,0,1.1-1,2.8-2,3.5-16.6,11.4-29.3,26-37,44.8-.2.4-.4.9-1,1-.7-9.6,1.1-18.5,4.3-27.6h.1Z"/>
    <path class="st35" d="M244.9,883.1c-6.3-14.9-12.6-29.8-19-44.6.6-.4,1.1-.8,1.7-1.1,1.9,1.5,3.8,3.1,5.7,4.6,1.9,1.6,3.9,3.1,5.8,4.7,6.4,5.6,12.7,11.2,19.1,16.7,6,5.2,7.4,12.3,7.3,20.2-1.7,1.6-2.9,2.8-4.7,4.4-2.6-4.4-9.2-.5-11.9-5.9-.1-.3-2.6.6-4,.9h0Z"/>
    <path class="st9" d="M782.1,635c2,8.7,3.9,17.1,5.7,25.5-.5.2-1.1.4-1.6.5-.9-1.8-1.8-3.6-2.8-5.3-8.7-15-19.3-28.3-33.8-38.1-2.5-1.7-3.9-3.3-2.9-6.9,1.2-4.6,1.2-9.5,1.8-15.2,14.4,10.7,27,22.2,33.6,39.5Z"/>
    <path class="st27" d="M753.3,831.9c-1.3-7.6-2.4-14.9-4-22-.7-3.1-.2-5.2,2.2-7.5,6.3-5.9,12.2-12,18.9-18.5.4,24.4-4.4,47-14.4,68.5h-1.3c-.4-6.7-.9-13.3-1.4-20.4h0Z"/>
    <path class="st27" d="M271.9,820c-1.3,11.1-2.5,21.7-3.6,32.1-7.7-6.9-16.9-50.4-14.3-68.7,2.8,3,5.2,5.7,7.6,8.2,1,1.1,1.9,2.4,3.1,3.2,8.5,6.4,12.2,14.2,7.3,25.1h-.1Z"/>
    <path class="st3" d="M716,113.1c5.9,14.5,8.8,29.2,10.7,44.6-13.4-5.2-23.9-12.6-27.2-27.3-.3-1.4-.6-3.2,0-4.3,3.8-6.7,7.9-13.3,12.6-20.9,1.7,3.4,2.8,5.4,3.9,7.8h0Z"/>
    <path class="st29" d="M319.4,117.6c1.6,4.7,4.9,9.5,4.1,13.5-1.6,7.9-5.2,15.5-13.3,19.4-4,1.9-7.9,4.2-12.7,6.7,1.4-18.1,5.9-34.7,13.8-51.4,3,4.3,5.5,7.9,8.1,11.7h0Z"/>
    <path class="st35" d="M553.7,947.6c1.5,1.8,2.7,3.8,4.2,6.2,6.6-3.5,13.3-7.1,20.3-10.9-3.3,7.8-6.6,15.9-10.8,23.6-4.1,7.4-9.2,14.2-14.3,21.1-2.8-1-5-2.2-7.4-2.5-2.5-.4-5,.2-5-3.6s-1.1-1-1.7-1.4c4.8-10.7,9.5-21.5,14.6-32.4M558.3,963.7c1.4-2.9,1.2-3.1-2.8-2.9-.5.5-.9.9-1.4,1.4,1.2.5,2.4,1,4.2,1.5h0Z"/>
    <path class="st3" d="M292.9,273.2c-1.3,10.4-2.5,20.5-3.8,31.3-11.7-12.4-20.8-25.4-25.2-41.7,9.2-3.1,17.9-3.7,25.5,2.9,1.9,1.6,2.4,4.7,3.5,7.6h0Z"/>
    <path class="st33" d="M564.2,321.7c-6.2,1.1-10,4.8-8.8,8.5-1.9.4-3.8.9-6.8,1.5.2.2-.5-.6-1.3-1.4h1.3c.9-4.7,1.8-9.4,2.3-14.4-.3-.2-.2-.7.3-.8,1.9-.6,3.2-1,5.3-1.7-1.4-1.6-2.3-2.6-3.2-3.7,8.3-17.7,16.6-35.3,24.9-53,.6.2,1.2.4,1.8.6-3.8,21.7-6.5,43.6-15.9,64.3h.1Z"/>
    <path class="st29" d="M732.7,290.3c-.8-6.4-1.8-12.3-2-18.3,0-2.1,1.2-5,2.8-6.3,7.9-6.5,16.7-6.1,26.4-2.8-5.2,16-14,29.3-25.4,41.8-.6-5-1.1-9.4-1.7-14.4h0Z"/>
    <path class="st9" d="M404.2,274.2c-4.5,4.8-8.7,9.4-13.9,14.9v-51.3c7.5,4.6,14.7,8.9,21.6,13.6,1.1.7,1.7,3.5,1.2,4.8-2.6,6-5.7,11.8-8.9,18h0Z"/>
    <path class="st18" d="M621.1,275.9c-3.6-6.5-7.1-12.7-10.4-19-1.5-2.8-.5-5.2,2.2-6.8,6.5-3.9,13-7.8,20.2-12.1v49.5c-4.3-4.2-8-7.8-12-11.7h0Z"/>
    <path class="st31" d="M397.1,723.9c6.3,4,8.3,9.5,6.1,16.4-1.6,5-2.7,10.2-4.1,15.3-15.2-3.8-23-20.9-18.9-42.2,5.6,3.5,11.1,6.9,16.8,10.5h.1Z"/>
    <path class="st31" d="M644.3,716.4c-.4,6.8-.7,13.1-1.2,19.4-.5,6.9-4.3,11.7-10.1,15.2-2.7,1.6-5.4,3.3-8.3,5.1-2.3-8.3-4.6-16.3-6.7-24.4-.2-1,.8-2.9,1.7-3.5,7.3-4.6,14.7-9.1,22.2-13.5.4-.2,1.5.9,2.3,1.8h0Z"/>
    <path class="st3" d="M141.4,646.1c2.4,1.6,4.5,3.5,6.5,5.2,2.6-5,5.2-9.8,7-13.4,11.1-4.6,21.4-8,28.1-17.3,1-1.4,2.4-3,3.9-3.4,3.7-1.2,4.3-3.9,6-7,2.6-4.8,1.2-9.5,2.3-14,.3-1.1,1.8-1.9,2.4-3.1.6-1.3.8-2.8,1-3.6-3.9,1-7,1.7-10.4,2.5,4.6-3.8,9.5-7.6,14.5-11.4.3.2.6.4.9.6-1.2,4.1-2.7,8.2-3.4,12.5-1.1,7-1.5,14.2-2.4,21.2-.2,1.7-1.1,4.1-2.4,4.7-25.3,12.7-45.1,31.5-61.4,54.2-.4.5-.8,1-2,1.3.7-3.2,1.3-6.4,2.2-9.6.9-3.2,1.9-6.4,3-9.5,1.2-3.3,2.7-6.4,4.3-9.9h-.1Z"/>
    <path class="st9" d="M822.2,493.9c-3.1-6.1-6-11.9-9.4-18.5,18.6,5.3,36.3,10.4,48.8,25-12,.8-24,1.6-36.5,2.4-.7-2-1.7-5.3-2.9-8.9h0Z"/>
    <path class="st9" d="M208.8,479.6c-3.9,8.1-7.5,15.9-11.4,24.3-11.3-4-23.6-3.9-36.8-1.9,13.3-15.7,31.4-20.6,50-26.4-.8,1.8-1.2,2.7-1.8,4Z"/>
    <path class="st26" d="M756.9,890.9c-.3-13.8,3.6-25.7,15.2-34.3,4.9-3.7,9.5-7.8,14.6-11.4,1.5,3.7,5.3,6.8,1.7,10.8.5.3,1,.6,1.5,1,0,.5-.2,1.1-.8,1.9-1.4,1.2-2.2,2.2-3.5,3.2-2-.2-3.6-.3-5-.5-2.3,5.9-4.3,11.5-6.6,17.1-.6,1.4-1.6,2.9-2.8,3.7-4,2.9-7.5,6.1-8.5,11.3-.2.9-1.7,1.8-2.8,2.1-.4,0-1.4-1.4-1.9-2.2s-.8-1.7-1.2-2.6M785.4,857.5"/>
    <path class="st8" d="M732.3,379.7c-12.6-7.3-21.8-17.6-29.6-29.5,24.7,18.6,52.9,30.5,81.1,42.3-18.4,1.1-35.2-3.9-51.5-12.8Z"/>
    <path class="st25" d="M620.1,317.1c.8-2.4,1.5-4.4,2.7-8,10.6,15.8,20.5,30.5,31.1,46.1-13.5-6.3-25.7-11.9-38.7-18,1.4-5.7,3.1-12.8,4.9-20.2h0Z"/>
    <path class="st29" d="M383,336c5.8-8.5,11.5-16.7,17.1-24.9h1.4c2.4,8.9,4.8,17.8,6.9,25.9-12.9,6.2-25,11.9-37.2,17.7-.3-.2-.6-.4-.9-.5,4.1-6,8.2-12,12.5-18.3h.2Z"/>
    <path class="st1" d="M209.6,640.3c8-10.3,17.9-18.5,29.4-27.1-4.6,13.1-8.8,25-13.2,37.4-8.1,1-17.2,2.1-26.4,3.2-.2-.5-.4-.9-.6-1.4,2.7-2.5,5.3-5,8.3-7,.5,1.1.8,1.5,1.1,2,.2-.2.6-.6.6-.6-.4-.5-.8-1.1-1.3-1.6,0-.6-.3-1.1.3-2,1.2-.3,1.7-.3,2.3,0,0,.2.2.2.3.3,0-.2-.2-.3-.4-.9-.2-1-.3-1.6-.4-2.2M205.4,649.7c.3.3.5.6.8.9,0,0,.2-.2.4-.3-.3-.3-.5-.6-1.2-.5M212.5,640.6"/>
    <path class="st2" d="M439.2,576.3c-6.4,18-16.4,33.6-30.5,46.6-5.6,5.1-10.9,10.7-16.4,16.2-1.8-1.2-3.5-2.4-5.9-4,3.1-2.6,6-4.9,8.8-7.3,15.2-12.6,25.9-28.4,33.4-46.5.9-2.1,1.3-4.5,2.5-7,3.1.5,5.6,1.2,8.1,2Z"/>
    <path class="st28" d="M262,383.1c11.9-6,24-11.8,35.8-18.1,6.7-3.6,12.9-8,19.7-12,.4,0,.6.2.6.2-4.7,5.7-8.7,12.1-14.1,16.9-16.5,14.7-36.2,22-58.8,22.6-.8-.8-1-1.3-1.3-1.8,1.1-.6,2.3-1.2,3.8-1.5,5.7,2.9,13.5-.8,14.3-6.2h0Z"/>
    <path class="st25" d="M758.7,353c.3,5.4.6,10.4,1,16.5-8.6-3.6-16.7-7-25.5-10.8,7.2-11.5,14.5-21.6,26.5-27.6-.7,7.3-1.4,14.4-2,21.9Z"/>
    <path class="st35" d="M756.7,891.3c.6.5.8,1.4,1.4,2.2.5.9,1.5,2.3,1.9,2.2,1.1-.3,2.6-1.2,2.8-2.1,1.1-5.2,4.5-8.4,8.5-11.3,1.2-.9,2.2-2.3,2.8-3.7,2.3-5.6,4.4-11.2,6.6-17.1,1.4,0,3,.3,4.9.8.4,1.5-3.3,3.1.8,3.7-8.7,20.4-17.7,40.6-33.3,58.8,1.3-12,2.4-22.6,3.7-33.6h-.1Z"/>
    <path class="st4" d="M806.5,634c1.8,1.4,3.8,2.6,5.3,4.2,4.6,5,8.9,10.1,13.9,15.8-10.3-1.2-19.6-2.3-28.3-3.4-4-12-7.9-23.9-12.2-36.8,8.6,5.7,15.1,12.5,21,19.8-1.8.4-3,.4-4.4,0-.4-.6-.7-.9-1-1.2-.3.8-.6,1.6-1.3,2.5-1.5.5-2.6.9-3.8,1.3.2.4.5.8.7,1.1,1.1-.8,2.3-1.7,3.7-2.6.7-.4,1.2-.6,1.7-.6,1.8,2.4,3,0,4.5-.3M804.5,639.3c-.3-.3-.5-.6-.8-.8l-.3.3c.2.3.5.6,1.1.5M805.6,636.5"/>
    <path class="st5" d="M625.2,516.5c-5.7-.4-11.5.2-16.3-1.7-8.6-3.3-9.5-11.6-2.7-18.6,3.5,6.9,8,12.9,16.7,10.4,8.3-2.4,10-9.4,9.2-17.4h7.4c4.1,11.3-1.4,22-14.3,27.2h0Z"/>
    <path class="st5" d="M414.6,501.5c1-1.7,1.9-3.2,2.7-4.6,6.2,6,5.6,12.8-1.7,17.2-7.3,4.5-14.9,4.2-22.2,0-7.9-4.7-11.5-11.8-10.4-21,.5-4.1,1.2-4.3,8.7-3.4-.6,7.2.7,13.7,8.5,16.5,5.7,2.1,10.4.2,14.4-4.6h0Z"/>
    <path class="st20" d="M214,700.6c-4.1,3-7.9,6.7-12.4,9-13.7,7.2-25.9,16.2-36.4,27.6-.3-.2-.2-.2-.2-.2,3.8-14.7,11.9-26.8,22.7-37.2,1.1,2.8,0,6.3,3.2,7,0-2.1-.7-4.3,0-5.5,1.5-2.3,3.8-4.1,6.2-6.4-.5,2.9-1,5.7-1.6,8.6,1.8,0,3.8.4,5.5,0,2-.5,4.7-1.1,3.7-4.5h.4c3.8-.2,7.1-.5,10.5-.7,0,0,0,.4-.6.7-.8.7-1,1.1-1.3,1.6h.3Z"/>
    <path class="st21" d="M331,717c-2.2.2-4.5.3-7.5.5-.2.4-.8,2.1-1.5,4.1v.3c-2.1-.8-4.3-1.4-6.3-2.3-3-1.4-6.8-2.4-4.1-7.1-1.1,0-2.1-.3-3.3-.5.7-9.8,3.7-18.8,8.7-28.6,7.3,11.2,12.3,22.3,16.6,34.1-.6.2-1.2,0-2.2-.6-.5-.6-.6-.9-.7-1.2-.1,0-.2.2-.4.3.2.3.5.7.7,1Z"/>
    <path class="st2" d="M227.8,869.2c7,15,13.9,29.7,20.7,44.4-.1.2-.3.5-.4.7-1.7-1.5-3.8-2.7-4.9-4.6-15.5-24.3-27.6-50-32.8-78.6-.4-2.4-.5-5-.6-7.5,0-1.8,0-3.6.5-5.5,5.8,16.9,11.6,33.7,17.5,50.9v.2h0Z"/>
    <path class="st18" d="M593.5,576.7c8.7,23.3,22.4,42.8,43.2,57.8-1.8,1.6-3.5,3.1-5.2,4.6-18.1-17.8-37.4-34.2-45.5-59.8,2.6-1.3,5-1.9,7.5-2.5h0Z"/>
    <path class="st31" d="M264.9,344.5c-.8-4.6-1.6-8.8-2.6-13.8,11.4,7,19.5,15.9,25.9,27.8-7.8,3.7-15.5,7.3-23.3,11v-25h0Z"/>
    <path class="st32" d="M782.5,128.5c-1.6.4-3.4,0-4.8.7-1.4.6-2.7,2.1-3.2,3.5-1.4,3.8-2.3,7.8-3.3,11.8-.4,1.7-.5,3.4-.8,5.1-.2,1.1-.5,2.2-1.1,3.4-1.6-6.7-2.7-13.4-4.1-20.1-2.5-12-5.3-23.9-8-35.8,0-.6,0-1.3-.3-3.3,10.4,11,18.5,22.3,25.6,34.8h0Z"/>
    <path class="st2" d="M775.8,913.7c0-1.5,0-3.1.9-4.4,13.8-24.8,24.6-50.8,32.3-78.1,1.2-4.4,2.8-8.7,4.6-12.9,1.1,9.6-.8,18.8-3.5,27.9-6.7,22.3-16.4,43.2-29.2,62.6-1.2,1.9-3.1,3.4-5.1,5.1v-.2h0Z"/>
    <path class="st14" d="M539.3,466.2c2.3-2.2,4.3-4.2,6.3-6.2.4.2.8.4,1.2.6-.3,3.1-.2,6.4-.9,9.4-1.4,5.8.4,12.6-5.3,17-6.7,5.1-13.4,10.2-20.8,14.8.8-15,8.3-26.1,19.4-35.5h0Z"/>
    <path class="st36" d="M215.4,510.3h-7.8c2.7-14.6,8.4-27,20-36.7-.3,1.3-.6,2.6-.9,3.9-1.8,7.6-1.4,15,3.2,21.5,2.3,3.2,1.4,5.7-1.2,7-4,2-8.6,2.9-13.3,4.3h0Z"/>
    <path class="st32" d="M574.7,220.6c2.4-1.8,4.5-3.3,7.3-5.3-2.3,19.9-11.4,36-20.5,53.1,0-11-.9-21.3.4-31.3.5-4.3,5.4-8.1,8.4-12,1.2-1.6,2.8-2.9,4.4-4.5h0Z"/>
    <path class="st3" d="M171.7,702.8c-3.2,4.8-6.2,9.3-9.2,13.8.5-20.2,15.1-40.8,41.4-50.5-1.5,6.7-5,11.2-9.5,15.4-7.6,7-15,14.1-22.7,21.4h0Z"/>
    <path class="st10" d="M358.2,557.3c2.5-1.6,5-2.7,7.2-5.2,1.8-2.1,5.8-2.7,8.9-3,5-.5,10-.3,15.4-.2-2.4,8.4-5.2,16.6-8.5,26.3-7.9-6-15.4-11.8-23-17.9h0Z"/>
    <path class="st18" d="M442.7,222.4c-.4-2.2-.6-3.9-.9-5.7.4-.3.7-.5,1.1-.8,3.1,2.9,6,5.9,9.2,8.6,7.9,6.8,11.9,15,10.4,25.8-.7,5.4-.1,10.9-.1,17.5-8.4-14.7-16.5-28.7-19.6-45.4h-.1Z"/>
    <path class="st29" d="M810.9,510.1c-5.6-1.5-10.9-2.8-15.8-4.8-1.2-.5-2.3-4.4-1.6-5.5,5.1-8.2,5.4-16.5,2-25.2-.2-.4,0-.9,0-2.9,11.9,10.9,17.5,23.6,20.6,38.3-1.8,0-3.3.2-5.1.2h-.1Z"/>
    <path class="st10" d="M633.8,550.5c4.6-.9,9.3-1.7,14-2,7.4-.5,11.9,4.5,16.7,9.4-7.1,5.7-14.5,11.4-22,17.1-3.2-8.9-5.9-16.5-8.7-24.5Z"/>
    <path class="st35" d="M245,883.5c1.3-.7,3.8-1.6,3.9-1.3,2.7,5.4,9.3,1.5,11.9,5.9,1.8-1.7,3.1-2.9,4.6-4,2,13,3.7,26,5.5,40.6-12.2-12.5-19.4-26.4-26-41.1h.1Z"/>
    <path class="st3" d="M854.4,705.7c-8.4-8.2-16.6-16.3-24.9-24.1-4.4-4.1-7.8-8.4-8.8-14.6,23.3,7,38.8,27,41,49.8-2.4-3.7-4.7-7.3-7.2-11.1h0Z"/>
    <path class="st23" d="M625.8,394.7c-4.5,2.2-8.5,4.3-13.8,7,.3-6.5.4-12.2.9-17.8.1-1.2,1.9-3,3.1-3.3,6.7-1.6,13.5-2.8,20.4-4,.7-.1,2.2,1.1,2.4,1.9,1,3.8,1.7,7.7,2.4,11.6-5.3,1.6-10.2,3.1-15.4,4.7h0Z"/>
    <path class="st14" d="M481.2,461.7c5.7,6.4,11.8,12.1,16.4,18.8,3.1,4.5,3.9,10.5,6,16.5-6.3,1.1-9.2-2.9-12.9-4.9-1.8-1-3.5-2.4-5.3-3.5-3.3-2.1-6-4.6-6.3-8.8-.4-5.7-.9-11.4-1.1-17.1-.1-2.5,1-3,3.2-1h0Z"/>
    <path class="st7" d="M382.5,389.9c.3-2,.7-3.6,1.1-5.2,1.2-5.3,4.5-7.9,9.9-7.6,16.3.8,19.4,4.9,17.3,23-9.3-3.2-18.7-6.5-28.2-10.1h0Z"/>
    <path class="st17" d="M782,496c-8.1,5.5-16.7,7.3-26.2,6.4,14.6-5.9,18.9-17.6,18.2-32.2,6.3.2,10.5,2.9,12.3,8.3,2.2,6.4,1.2,12.4-4.3,17.5h0Z"/>
    <path class="st2" d="M813.9,406c8.8,4.3,15.1,10.7,21.2,19-19.1-5-35.7-13-53-22.6,11.6-.8,21.7-1.2,31.7,3.5h0Z"/>
    <path class="st15" d="M259.4,502.8c-5.9-2-11.6-3.2-16.6-6-5.9-3.2-8-10.3-6.3-16.4,1.6-5.7,6.2-9.5,12.6-10-.3,13.8,3.5,25.5,17,32.4h-6.7Z"/>
    <path class="st20" d="M226.7,666c1,10.6-2.8,19.9-8.6,28.6-2.3-1.3-4.2-2.4-6-3.6-1.1,1.4-2,2.6-3.3,4.2-.6-1.6-1-2.5-1.9-4.9-.9,3.9-1.4,6.2-2,8.6h-.4c-1-.9-2.4-2-2.2-2.8.5-2.6,1.5-5.1,2.5-7.8-1.5-.3-2.4-.4-3.3-.6.8-.9,1.7-1.8,3.2-2.8,7,.4,5.9-3.6,5.1-7.4.7-.5,1.5-1,2.8-1,2,2.5,3.8,2.5,4.7.3.4-1-.5-2.7-1.2-3.7s-2.1-1.5-3.2-2.2c.8-4.7,4.1-7.2,9.8-7.6.5,1.7.7,2.9.8,4.4,1.4-.7,2.3-1.2,3.3-1.7M207.5,687.6"/>
    <path class="st13" d="M308.8,485.2c-1.2-.4-2.1-.8-2.7-1.2,2.3-4.1,4.6-8,6.7-12,1.8-3.4,1.2-6.4-2.6-8.7,10.3-4,20.8-7.8,31.3-11.5-7.7,13.9-17.9,25.6-32.8,33.4h.1Z"/>
    <path class="st2" d="M219.1,403c6.8-.4,13.1-.7,20.7-1.1-12.3,9.5-39.5,21.1-51.3,22.4,8.1-10.3,17.5-18.1,30.6-21.2h0Z"/>
    <path class="st2" d="M775.6,663.4c1.1,2.9,1.9,5.5,2.8,8.1-11.2-13.5-23.9-25-36.8-36.4-1.4-1.2.3-6,.7-10.2,15.4,10.4,26.3,22.6,33.3,38.5h0Z"/>
    <path class="st2" d="M248.6,668.7c-1.1,1-1.9,1.8-3.7,3.5,6.2-20.8,19-34.7,34.7-46.5,4.6,7.3,4.3,7.3-1.4,12.9-10,9.7-19.6,19.9-29.5,30.1h-.1Z"/>
    <path class="st13" d="M566.3,674.5c-.6,5-1.2,9.6-1.9,14.8-5.2-4.2-10.2-7.1-9.3-15.1,1-9,.2-18.2,1.2-28,3.3,4.2,6.7,8.3,9.9,12.5,3.9,5.1.4,10.2,0,15.8h0Z"/>
    <path class="st35" d="M456.9,967.6c1.4-2.5,3.2-4.6,4.3-7,1.3-3.1,3-3.7,6.1-2.6,1.2.4,2.9-.6,4.7-1.1,1.7,2.1,3.1,4.4,4.4,6.7,2.2,4.2,4.3,8.6,6,13.2-6.4-.3-11.4,1.5-15.4,6.1-3.3-5-6.7-10-10.1-15.3h0Z"/>
    <path class="st19" d="M466,646.1c.9,0,2.1,0,2.1.4,0,11.2.6,22.4-.3,33.4-.2,3.1-4.8,5.8-8.3,9.7-1.6-10-3.2-18.5-4.2-27.1-.2-1.6,1.5-3.6,2.6-5.2,2.5-3.7,5.3-7.3,8.1-11.2h0Z"/>
    <path class="st9" d="M399.1,366.7h-23.2c9.1-7.8,18.3-13.8,29.7-15.4,2.6-.4,4.2.6,4.5,3.3.5,5.1,1,10.1,1.6,15.4-4.5-1.2-8.4-2.2-12.6-3.2h0Z"/>
    <path class="st9" d="M613.2,354.4c1.7-1.4,3.5-3.3,4.9-3.1,11,1.3,19.8,7.4,27.9,13.7-11.2,1.2-22.4,2.4-34.1,3.7.3-3.9.8-8.9,1.3-14.3h0Z"/>
    <path class="st31" d="M439.4,576.1c-2.8-.5-5.3-1.3-8.2-2.1-1.4-9.3-2.3-18.6-3.3-28.3,7.8,1.8,13.9,7.9,20.4,14-2.9,5.5-5.7,10.8-8.8,16.4M432.5,571.4"/>
    <path class="st26" d="M557.7,382.9c-.7-.7-1.5-1.6-1.6-2.6-.2-1.8,0-3.7,0-5.9h4.4c-5.2-7.7,1.2-10.5,5-14.5.3-.3-.3-1.3-.8-2.1,4.3-3.6,9-7.2,14.1-10.3,1.1,1.2,1.7,2.5,2.6,2.8,2.1.8,4.5,1,6.7,1.5-10,10.3-20.1,20.6-30.4,31h0Z"/>
    <path class="st4" d="M671.5,357.5c1.9-.4,4.1-.1,6-.7,2.6-.8,5.1-2.1,7.5-3.5,1.1-.7,1.9-2,3.1-3.3,4.8,5.6,9.4,11.5,13.8,17.9-2.7,3.4-5.2,6.4-7.8,9.3-4.2-3.6-8.5-7.1-12.3-11,1.6-1.1,2.8-2,4-2.8-.4-.4-.8-.9-1.2-1.3-1.1,1.2-2.1,2.3-3.2,3.5-3.2-2.5-6.5-5.1-9.9-7.9v-.2h0Z"/>
    <path class="st20" d="M326.3,534.7c-1.3,6.5-2.9,12.9-4.7,19.7-6.3-5.9-12.5-11.5-18.5-17.4-2.1-2.1.6-6.3,4.4-5.9,6.2.6,12.3,2.2,18.8,3.6h0Z"/>
    <path class="st25" d="M660.9,303.2c6.1-4.5,11.9-8.9,18.3-13.7-.7,10.3-1.4,19.9-2.2,30.7-6.8-5-12.9-9.5-19.4-14.3,1.4-1.2,2.2-1.9,3.3-2.7h0Z"/>
    <path class="st4" d="M329.6,357.1c4.1,1.3,6.8,5.7,12,3.6,2.1-.8,4.7-.6,7.4-.8-7.1,6.2-14.5,12.2-22.6,18-3.5-1.8-6.4-3.4-9.4-5,4.1-5.2,8.2-10.4,12.6-15.9h0Z"/>
    <path class="st26" d="M463,360.4c1.7,5.7-1.8,8.1-5.9,10.6-7.2-5.9-14.1-12-21-18.6.9-1.7,1.7-2.9,2.6-4.1.8-1,1.6-2.1,2.3-3.1,7.3,5,14.5,9.9,22,15.2Z"/>
    <path class="st0" d="M699,541.1c-.4-2.2-.8-3.9-1.3-6.5,5.7-1.2,10.9-3,16.3-3.3,2.6,0,5.4,2.4,7.6,3.5-6.7,7.3-12.6,13.7-18.9,20.6-1.3-5-2.4-9.4-3.6-14.2h0Z"/>
    <path class="st3" d="M351.6,295.5c4.5,3.4,8.8,6.5,14,10.3-6.3,4.9-12.2,9.4-18.9,14.6-.8-10.7-1.6-20.3-2.4-31,2.7,2.3,4.9,4.1,7.3,6.1h0Z"/>
    <path class="st2" d="M803.4,888.3c4.7-10.7,9.3-21.1,13.8-31.4,3.2,17.8-5.8,38.2-22.5,48.2,3.3-6.3,5.9-11.4,8.7-16.9h0Z"/>
    <path class="st2" d="M209,862c6.1,14,12.1,27.6,17.9,40.9-13.6-5.9-22-24.4-20.6-47.5,1.2,2.9,1.9,4.6,2.7,6.6Z"/>
    <path class="st20" d="M811.7,544.2c-5.9.2-11.4.2-16.9.2-.2-.4-.4-.9-.5-1.3,2.2-1.5,4.6-2.8,6.4-4.7,4.1-4.3,7.8-8.9,11.7-13.3,1-1.1,2.4-1.9,3.6-2.8.7,1.5,1.9,3,1.9,4.5,0,6.3-.7,12.6-6.3,17.4h0Z"/>
    <path class="st20" d="M210.7,543.6c-4.8-5.3-5.8-11.4-5.3-17.9,0-1.2,1.4-2.3,2.1-3.5,1.1.8,2.6,1.3,3.1,2.4,4.1,8.2,10.7,13.8,19.2,18.9-6.9,2.5-12.8,1.7-19,0h0Z"/>
    <path class="st14" d="M448.4,336.6c-5.2-2.8-10.2-5.4-15.5-8.1,3.5-5.7,6.7-10.9,10.6-17.4,3.9,9.7,7.3,18.3,10.8,27-.4.4-.8.7-1.2,1.1-1.5-.8-2.9-1.5-4.7-2.5h0Z"/>
    <path class="st14" d="M584.3,318.6c2,3.4,3.8,6.4,5.6,9.5-2.9,1.6-5.8,3.2-8.7,4.9-2.4,1.4-4.7,3.2-7.2,4.5-1.6.8-3.5,1.1-5.8,1.8,4.2-9.5,8-18.1,12.1-27.5,1.4,2.5,2.6,4.5,4,6.9h0Z"/>
    <path class="st20" d="M593.6,576.3c-2.5,1.1-4.9,1.7-7.5,2.6-3.1-5.2-6-10.7-8.6-16.6,1.3-.9,2.7-1.3,3.2-2.1,2.6-4.6,6-4,9.9-1.8.8.4,1.9.4,2.8.6,0,5.6.2,11.3.2,17.3M590.3,562.2c.1,0,.2-.2.4-.4-.1,0-.3,0-.4.4Z"/>
    <path class="st24" d="M697.3,523.9c-1.5.3-2.5.4-4.1.7,1.2-7.2,2.4-14,3.9-22.4,5.6,6.6,10.3,12.2,15.4,18.2-5.5,1.3-10.1,2.4-15.1,3.5h-.1Z"/>
    <path class="st35" d="M467.1,983.3c3.8-4.9,8.9-6.7,15.3-6,2.1,2.7,3.8,5.4,5.5,8.4-4.2,2.7-8.5,5.1-13.2,7.5-2.8-3.1-5.1-6.3-7.6-9.9h0Z"/>
    <path class="st20" d="M230.5,555.4c5.4-2.5,10.5-4.8,16-7.3-3.6,13-13.3,19.7-25.4,16.9,3.3-3.5,6.2-6.5,9.3-9.6h0Z"/>
    <path class="st35" d="M538.9,980.3c.8.2,1.9.7,1.9,1.2,0,3.8,2.5,3.3,5,3.6,2.4.3,4.6,1.5,7.1,2.7-2.1,3.6-4.3,6.9-6.8,10.3-3-.9-5.7-1.9-8.4-3,0,.2-.2.4-.3.7-1.6-.9-3.1-1.9-5.1-2.9,1.9-4.1,4.2-8.3,6.7-12.7h-.1Z"/>
    <path class="st20" d="M785.9,552.2c6.6,2.8,12.1,6.3,14.9,12.9-9.9,3.3-20.6-4-23.2-16.3,2.9,1.2,5.4,2.2,8.3,3.4h0Z"/>
    <path class="st35" d="M327.6,508.7c.9,5,1.8,10,2.8,15.5-6.9-1.2-13.1-2.3-19.8-3.4,3.4-4,6.5-7.8,10.4-11.6,2.7-.2,4.7-.3,6.6-.4h0Z"/>
    <path class="st26" d="M588.3,351.7c-2.6-.4-4.9-.6-7-1.4-.9-.3-1.5-1.6-2.3-2.8,6.5-4,13-7.6,19.7-11.2,2,2.7,3.3,4.5,4.8,6.5-5.1,3-10,6-15.1,9h-.1Z"/>
    <path class="st4" d="M718.3,384.9l20.7,19.6c-.4.6-.9,1.1-1.3,1.7-8.5-5.1-17-10.3-25.6-16,2-2.2,4.1-3.7,6.2-5.3h0Z"/>
    <path class="st26" d="M505.4,432.4c-5,1.2-8.9.7-9.1-5.8,0-1.1-1.6-2.1-2-3.2-.6-1.6-1.3-3.5-1-5.1.6-3.4,1.9-6.8,2.9-10.6,3.1,7.8,6.2,16,9.2,24.7Z"/>
    <path class="st29" d="M593.6,558.7c-1.2,0-2.2.2-3-.3-3.8-2.2-7.2-2.8-9.9,1.8-.5.8-1.9,1.2-3.2,1.8-.5-1.3-1.3-3.2-.7-4,4.6-6.4,11.4-10.4,20.4-12.5-1.2,4.4-2.3,8.7-3.6,13.2M579.5,559.6"/>
    <path class="st26" d="M497.1,442.4c3.6-2.9,6.7-3.1,9.1,1.7.3,8.6.3,16.9.3,25.3-.3,0-.6.2-1,.3-1-2.9-1.9-5.8-2.6-9.2-.2-1.2-.6-1.8-1-2.4-.2-.4-.4-.7-.3-1.6,0-1.1-.5-1.7-.8-2.4-1.3-3.8-2.5-7.5-3.8-11.7h0Z"/>
    <path class="st26" d="M440.6,345.1c-.4,1.1-1.2,2.1-2,3.2-.9,1.2-1.7,2.4-2.7,3.8-5.4-2.9-10.6-6-15.8-9,3.4-6.5,3.7-6.5,9.7-3.2,3.4,1.9,6.9,3.4,10.8,5.2Z"/>
    <path class="st8" d="M373.3,384.5c-.3,3.8-1.4,5.6-5.5,5.8-6,.3-12,1.5-18,2.3-.2-.5-.4-1-.7-1.5,7.9-3.8,15.8-7.6,24.8-11.8-.2,2.4-.4,3.6-.6,5.2Z"/>
    <path class="st31" d="M201.3,687.9c1.2,0,2.1.3,3.6.5-.9,2.7-2,5.2-2.5,7.8,0,.8,1.2,1.8,2.2,2.8,1.3,3.3-1.4,3.9-3.4,4.5-1.8.5-3.8,0-5.5,0,.5-2.9,1.1-5.7,1.6-8.6-2.4,2.3-4.7,4.1-6.2,6.4-.8,1.3,0,3.5,0,5.5-3.3-.7-2.1-4.3-2.9-7.2,2.9-2.9,5.7-5.4,9.1-7.9,1.3.6,2,1.3,2.8,1.9v-4.6c.3-.4.6-.8,1.2-1.3v.2h0Z"/>
    <path class="st7" d="M649.7,382.7c.2-1.1.8-2.4.9-2.4,7.9,3.3,16.5,5.6,23.5,12.2-7.5-.9-14.3-1.4-20.7-2.9-1.6-.4-2.4-4.3-3.6-7h-.1Z"/>
    <path class="st8" d="M794.5,529.6c-3.4-5.3-6.4-10.7-9.5-16.4,5.7,2,11.4,4.3,17.4,6.8-1.3,4.1-3.4,7.6-7.9,9.6h0Z"/>
    <path class="st28" d="M240.6,511.5c-2.6,5.4-5.6,10.9-8.7,16.7-1.3.3-3,.7-3.6,0-2.2-2.1-4-4.7-5.6-6.6,6.2-3.6,11.9-6.8,17.9-10.1h0Z"/>
    <path class="st4" d="M694.1,377.4c2.4-3.3,4.9-6.2,7.8-9.3,2.7,2.4,5,4.9,7.3,8.3-.5,6.8-.4,6.8-6.4,4.6-.4-.1-1.2.8-1.8,1.2-2.2-1.5-4.5-2.9-6.9-4.7h0Z"/>
    <path class="st4" d="M311,389c-6.9,4.4-13.9,8.8-20.8,13.2-.3-.5-.7-1-1-1.5,6-6,12-12,18.3-17.8,1.4,2.2,2.4,4.1,3.5,6.1h0Z"/>
    <path class="st4" d="M317.7,372.1c3.2,1.5,6.2,3,9.3,4.9-1.7,2.2-3.7,4.2-6.4,6-3.2-1.7-5.7-3.3-8.3-5,1.7-2,3.3-3.9,5.3-6h0Z"/>
    <path class="st4" d="M701.1,382.4c.4-.7,1.2-1.6,1.6-1.5,4,1.5,6.2,0,6.5-4.2,3,2.2,5.9,4.9,9,8-2,1.9-4.1,3.4-6.2,5.3-3.6-2.2-7.1-4.7-10.8-7.5h0Z"/>
    <path class="st4" d="M313,377.2c2.8,1.4,5.3,3.1,8.2,4.8-3.3,2.7-6.9,5.3-10.9,7.9-1.4-1.9-2.4-3.9-3.5-6.2,1.9-2.4,3.9-4.4,6.2-6.6M314,381.7c0-.3-.2-.7-.3-1,0,.3,0,.6.3,1Z"/>
    <path class="st35" d="M790.1,856.7c-.7,0-1.2-.3-1.7-.7,3.5-4-.2-7.1-1.4-10.9,3-2.8,6-5.2,9.1-7.5.3.3.6.5.9.8-2.2,6-4.5,12-6.9,18.3h0Z"/>
    <path class="st2" d="M400.1,489.1c2.8-4.6,5.6-5.6,7.6-2.7.9,1.4,1.3,3.9.7,5.4-.5,1.2-3.4,2.8-4.1,2.4-1.7-.9-2.8-3.1-4.1-5.1h-.1Z"/>
    <path class="st31" d="M205.4,699c.2-2.4.7-4.8,1.6-8.6.9,2.4,1.3,3.3,1.9,4.9,1.3-1.6,2.2-2.8,3.3-4.2,1.8,1.2,3.6,2.3,5.7,3.8-.4,1.2-.9,2.2-1.7,3.3-3.6.4-7,.6-10.7.8h-.1Z"/>
    <path class="st2" d="M614.9,490.8c1.2-2.3,2.2-4.5,3.9-5.8.5-.4,3.7,1.4,4.3,2.8.6,1.4.1,4.1-.9,5.1-2.8,2.7-5.3,1.3-7.2-2.1h0Z"/>
    <path class="st28" d="M261.7,383.1c-.5,5.5-8.3,9.1-13.6,6.2,4.4-2.3,8.8-4.2,13.6-6.2Z"/>
    <path class="st27" d="M849,727.4c1.2-1.3,2.6-2.2,4.3-3.4,2.1,3.6,3.8,7.4,5.5,11.3-.6.4-1.1.8-1.7,1.2-2.6-2.9-5.3-5.9-8.1-9.1Z"/>
    <path class="st3" d="M186.6,592.8c.5,5.4-5.7,6.6-7.4,10.9,0,.3-2.4-.2-3.9-.6,3.5-3.5,7.2-6.9,11.3-10.3h0Z"/>
    <path class="st31" d="M212.6,671.1c1.3.5,2.7,1,3.4,2,.8,1,1.6,2.8,1.2,3.7-.9,2.2-2.6,2.2-4.4,0-.3-.2,0-.3-.2-.6-.6-.6-1-.9-1.5-1.1.4-1.3.8-2.6,1.5-4.1h0Z"/>
    <path class="st13" d="M307.6,463.5c-3.8,4-9.1,3.1-14.4,2.7,4.5-1.1,9.2-1.9,14.4-2.7Z"/>
    <path class="st35" d="M327.6,508.3c-1.9.5-3.9.6-6.3.7,1.1-2,2.7-3.9,4.9-6.6.6,2.6,1,4.1,1.4,6h0Z"/>
    <path class="st31" d="M209.6,677.8c1,3.6,2.1,7.6-4.6,7.1,1.2-2.3,2.7-4.6,4.6-7.1Z"/>
    <path class="st33" d="M538.5,338.1c1.3,1.3,2.4,2.8,3.4,4.3-.5.4-.9.7-1.4,1.1-1-.7-2-1.5-3.3-2.3.1-1,.6-2,1.3-3h0Z"/>
    <path class="st16" d="M553.2,310c1.1.8,2,1.8,3.3,3.4-2.1.7-3.4,1.2-5.1,1.6.3-1.6.9-3.2,1.8-5h0Z"/>
    <path class="st31" d="M226.8,665.7c-1.1.8-2,1.3-3.4,2-.2-1.5-.3-2.8-.4-4.4.5-.6,1-.8,1.8-.7.8.6,1.3,1,1.8,1.3,0,.5.2.9.2,1.7h0Z"/>
    <path class="st35" d="M786.6,865.8c-4.3-.4-.6-2-.6-3.5.9-1.3,1.7-2.3,2.9-3.3-.5,2.1-1.3,4.3-2.3,6.7h0Z"/>
    <path class="st20" d="M199.7,689.2c.3,1.5.2,3,.2,4.5-.7-.6-1.5-1.3-2.5-2.1.5-.9,1.2-1.7,2.3-2.5h0Z"/>
    <path class="st28" d="M243.5,390.8c.6.5.9,1,1.3,1.7-1.7.3-3.5.3-5.3.3,0-.2-.2-.4-.3-.6,1.3-.5,2.6-.9,4.3-1.4Z"/>
    <path class="st4" d="M681.4,365.5c1-1.2,2.1-2.4,3.1-3.5.4.4.8.9,1.2,1.3-1.2.8-2.4,1.7-4,2.4-.4,0-.3-.2-.4-.2h.1Z"/>
    <path class="st1" d="M207.5,645.3c.4.5.9,1,1.2,1.5,0,0-.4.4-.6.6-.3-.5-.5-.9-.7-1.8v-.4h0Z"/>
    <path class="st1" d="M210,643c-.5,0-1.1,0-2-.2,0-.7.6-1.4,1.3-2.3.4.4.5,1,.7,2v.5Z"/>
    <path class="st26" d="M500.8,455.3c.4.3.7,1,.8,1.8-.5-.4-.7-.9-.8-1.8Z"/>
    <path class="st26" d="M502,459.3c.4.3.8.9,1,1.7-.5-.4-.7-.9-1-1.7Z"/>
    <path class="st20" d="M226.7,663.7c-.6,0-1.1-.4-1.6-.9.5,0,1.1.3,1.6.9Z"/>
    <path class="st35" d="M554.3,946.1c.7.2,1.4.5,2,.8-.5.2-1,.3-1.8.3-.4-.5-.4-.7-.2-1.1Z"/>
    <path class="st34" d="M668,353.5c.2,0,.6.2.9.6-.3,0-.6-.2-.9-.6Z"/>
    <path class="st31" d="M214.4,700.4c0-.3.2-.7.7-1.3,0,.3-.2.7-.7,1.3Z"/>
    <path class="st18" d="M299.8,905.9c.2-.3.4-.6.5-.9,0,0,.1.2.2.3-.1,0-.3.2-.6.5-.2.2-.2,0-.2.2h.1Z"/>
    <path class="st28" d="M317.9,352.9c.1-.3.3-.5.5-.6v.8c-.2,0-.3,0-.4-.1h-.1Z"/>
    <path class="st20" d="M164.9,737v.6h-.3v-.6h.3Z"/>
    <path class="st3" d="M161.5,718.5"/>
    <path class="st29" d="M559,465s-.2-.1,0,0,.1,0,0,0Z"/>
    <path class="st20" d="M211.1,675.7c.5-.2,1,0,1.5.7-.5.2-1,0-1.5-.7Z"/>
    <path class="st13" d="M531.7,1000c-.1.2-.3.2-.4.2.1,0,.3-.2.4-.2Z"/>
    <path class="st1" d="M325,722c-1,.2-1.9.4-2.9.3v-.3h3-.1Z"/>
    <path class="st21" d="M325,722c0-.8.2-1.5.3-2.3.4,0,.7.2,1.1.3-.3.6-.5,1.3-1.1,1.9h-.3Z"/>
    <path class="st33" d="M554.5,336.5"/>
    <path class="st26" d="M500.7,438c-.4.5-1,.8-1.6.9-.1,0-.4-.7-.6-1.1.7,0,1.4,0,2.2.2Z"/>
    <path class="st26" d="M491.1,414.7c.1-.4.3-.6.5-.8,0,.3.2.6.2.9h-.7Z"/>
    <path class="st35" d="M558,963.7c-1.5-.5-2.7-1-3.9-1.5.5-.5.9-.9,1.4-1.4,4-.2,4.2,0,2.5,2.9Z"/>
    <path class="st35" d="M785.5,857.5"/>
    <path class="st1" d="M205.6,649.5c.4,0,.7.4,1,.7,0,0-.2.2-.4.3-.3-.3-.5-.6-.6-1Z"/>
    <path class="st1" d="M210,643s.2.3.4.5c0,0-.2,0-.3-.3v-.2h0Z"/>
    <path class="st1" d="M212.4,640.5"/>
    <path class="st4" d="M806.5,634c-1.5,0-2.7,2.7-4.5.3v-.3h4.5Z"/>
    <path class="st4" d="M800,635c-1.1.8-2.3,1.7-3.4,2.5-.2-.4-.5-.8-.7-1.1,1.1-.4,2.3-.9,3.8-1.3h.4,0Z"/>
    <path class="st4" d="M802,634c-.5.3-1,.5-1.7.9h-.3c.3-.7.6-1.6.9-2.4.3.3.6.6,1,1.2v.3h0Z"/>
    <path class="st4" d="M804.4,639.4c-.4,0-.7-.4-.9-.7l.3-.3c.3.3.5.6.6,1h0Z"/>
    <path class="st4" d="M805.5,636.5"/>
    <path class="st21" d="M331,717c-.2-.3-.5-.7-.7-1,.1,0,.2-.2.4-.3.1.3.2.5.4,1v.2h0Z"/>
    <path class="st31" d="M207.5,687.5"/>
    <path class="st2" d="M432.5,571.5"/>
    <path class="st29" d="M590.3,562c.1-.2.2-.2.4-.2-.1,0-.2.2-.4.2Z"/>
    <path class="st20" d="M579.5,559.5"/>
    <path class="st35" d="M311.8,383.7c-.2-.3-.1-.7,0-1,0,.3.2.7,0,1Z"/>
    <path class="st30" d="M501,784c-2.7-.6-11.1-3.3-11.1-3.3,0,0-13.9-7.1-16.3-9.4-14-12.7-21.8-28-22.5-46.6-.4-9.2-.7-18.3-1-27.9h0c-1.6-17.3-4.5-33.8-14.8-48.1-.5.4-.9.5-1,.8-18.4,33.6-23.9,68.4-10,105.1,5,13.2,11,25.7,22.8,34.4,4.2,3.5,8.3,7.2,11.5,8.7,6.6,3.6,13.2,4.3,20.3,4.3h0c4.4-.7,8.7-.7,12.1-2.4,4.4-2.3,8.6-5.5,12.2-9.1,2.4-2.3,2.3-5.5-2.2-6.5Z"/>
    <path class="st22" d="M587.8,648.2c-4.3,8.5-8.6,16.8-10.8,25.7-4,16-5.5,32.5-4.8,49,.5,13-3.5,24.5-10.8,35.5h0c-3.3,4.1-5.2,8.4-10.3,12.7s0,0,0,0c0,0-7,6.1-12.9,8s-9.8,3.1-14.7,4.5c-4.9,1.3-5.6,2.7-3.2,7.2.7,1.2,1.8,2.3,2.9,3.3,7.8,6.9,17,8.6,27.4,7.9,0,0-3.4-.2,0,0s11,0,24.4-10.4c15.1-8.4,29.1-45,31.7-71.8,2.5-25.6-5.6-49.2-18.8-71.5h-.1Z"/>
    <path class="st22" d="M512,812.4l-42.4.6c.8,2,1.3,3.3,2.1,5h.1c8.6,12.1,22.8,16.4,35.2,16,4.7.4,4.1.2,8.2.3,16.1.3,32.6-7.4,38.6-20.3-12.4-.6-41.8-1.7-41.8-1.7h0Z"/>
  </g>
</svg>